<?xml version="1.0" encoding="UTF-8" standalone="no"?>
<svg width="209px" height="50px" viewBox="0 0 209 50" version="1.1" xmlns="http://www.w3.org/2000/svg" xmlns:xlink="http://www.w3.org/1999/xlink" xmlns:sketch="http://www.bohemiancoding.com/sketch/ns">
    <!-- Generator: Sketch 3.3.2 (12043) - http://www.bohemiancoding.com/sketch -->
    <title>Slice 1</title>
    <desc>Created with Sketch.</desc>
    <defs>
        <linearGradient x1="-0.0580295567%" y1="49.8101753%" x2="99.8730049%" y2="49.8101753%" id="linearGradient-1">
            <stop stop-color="#65C294" offset="0%"></stop>
            <stop stop-color="#97CE8B" offset="100%"></stop>
        </linearGradient>
        <linearGradient x1="0.175638507%" y1="50.0281066%" x2="100.147053%" y2="50.0281066%" id="linearGradient-2">
            <stop stop-color="#FFE363" offset="0%"></stop>
            <stop stop-color="#FEC057" offset="100%"></stop>
        </linearGradient>
        <linearGradient x1="-0.0287202381%" y1="50.0077979%" x2="99.9589286%" y2="50.0077979%" id="linearGradient-3">
            <stop stop-color="#88CBDF" offset="0%"></stop>
            <stop stop-color="#54BCEB" offset="100%"></stop>
        </linearGradient>
    </defs>
    <g id="Page-1" stroke="none" stroke-width="1" fill="none" fill-rule="evenodd" sketch:type="MSPage">
        <g id="dolina-gubra-logo-stopka" sketch:type="MSLayerGroup">
            <g id="Group" sketch:type="MSShapeGroup">
                <g>
                    <path d="M51.4877944,38.6607143 C48.9490364,41.7410714 45.6976445,44.1964286 42.0453961,45.625 C37.4132762,47.4553571 32.2466809,47.6339286 27.6591006,46.2946429 C23.0269807,44.9553571 18.9738758,42.0535714 16.2569593,38.3035714 C13.985439,35.2232143 12.6937901,31.5625 12.3374732,27.9017857 C9.97687366,27.9910714 8.10620985,28.125 6.7254818,28.3482143 C7.57173448,33.125 9.70963597,37.5892857 12.8719486,41.1160714 C16.5687366,45.3125 21.6462527,48.2142857 27.035546,49.1964286 C32.3802998,50.2232143 37.9922912,49.4196429 42.7134904,47.0089286 C46.4993576,45.0892857 49.6616702,42.1428571 51.9331906,38.7053571 C51.7550321,38.6607143 51.6214133,38.6607143 51.4877944,38.6607143 L51.4877944,38.6607143 Z" id="XMLID_73_" fill="url(#linearGradient-1)"></path>
                    <path d="M9.53147752,14.1517857 C11.4466809,10.8928571 14.1635974,8.125 17.3259101,6.16071429 C21.4680942,3.61607143 26.3229122,2.5 30.9995717,2.94642857 C35.6762313,3.34821429 40.0856531,5.3125 43.4261242,8.39285714 C46.1875803,10.8482143 48.191863,14.0178571 49.3053533,17.4553571 C51.6214133,16.7410714 52.9576017,15.9821429 52.9576017,15.9821429 L54.3828694,15.1339286 C52.5122056,11.0714286 49.6616702,7.54464286 46.1430407,4.95535714 C41.7336188,1.69642857 36.3443255,-0.0446428571 31.0441113,0.0446428571 C25.7438972,0.0446428571 20.5327623,1.83035714 16.4351178,4.95535714 C13.1837259,7.41071429 10.6449679,10.625 9.04154176,14.2410714 C9.26423983,14.1964286 9.39785867,14.1964286 9.53147752,14.1517857 L9.53147752,14.1517857 Z" id="XMLID_72_" fill="url(#linearGradient-2)"></path>
                    <path d="M0.222698073,22.8571429 C0.222698073,22.8571429 9.66509636,18.2589286 20.3546039,18.3482143 C31.0441113,18.4821429 38.0813704,24.5982143 44.8959315,23.8392857 C51.7104925,23.0803571 55.7635974,20.625 55.7635974,20.625 L60.08394,31.3392857 C60.08394,31.3392857 46.6329764,36.7410714 36.1216274,30.5803571 C28.5498929,26.1607143 25.5211991,22.8125 15.2770878,22.5892857 C5.07751606,22.3660714 0.623554604,24.0178571 0.623554604,24.0178571 L0.222698073,22.8571429 L0.222698073,22.8571429 Z" id="XMLID_71_" fill="url(#linearGradient-3)"></path>
                </g>
                <g transform="translate(67.700214, 10.714286)">
                    <g transform="translate(2.672377, 23.214286)" id="Shape" fill="#58595B">
                        <path d="M2.7614561,0.758928571 C2.7614561,0.803571429 2.71691649,0.803571429 2.67237687,0.803571429 C2.62783726,0.803571429 2.62783726,0.803571429 2.58329764,0.758928571 C2.53875803,0.714285714 2.49421842,0.669642857 2.40513919,0.625 C2.31605996,0.580357143 2.22698073,0.535714286 2.1379015,0.491071429 C2.00428266,0.446428571 1.87066381,0.446428571 1.73704497,0.446428571 C1.55888651,0.446428571 1.42526767,0.491071429 1.29164882,0.535714286 C1.15802998,0.580357143 1.06895075,0.625 0.97987152,0.714285714 C0.890792291,0.803571429 0.846252677,0.892857143 0.801713062,0.982142857 C0.757173448,1.07142857 0.757173448,1.20535714 0.757173448,1.33928571 C0.757173448,1.47321429 0.801713062,1.60714286 0.846252677,1.69642857 C0.890792291,1.78571429 0.97987152,1.875 1.11349036,1.96428571 C1.20256959,2.05357143 1.33618844,2.09821429 1.46980728,2.14285714 C1.60342612,2.1875 1.73704497,2.23214286 1.87066381,2.27678571 C2.00428266,2.32142857 2.1379015,2.36607143 2.27152034,2.41071429 C2.40513919,2.45535714 2.53875803,2.54464286 2.62783726,2.63392857 C2.71691649,2.72321429 2.80599572,2.8125 2.89507495,2.94642857 C2.93961456,3.08035714 2.98415418,3.21428571 2.98415418,3.4375 C2.98415418,3.61607143 2.93961456,3.79464286 2.89507495,3.97321429 C2.85053533,4.15178571 2.71691649,4.28571429 2.62783726,4.41964286 C2.49421842,4.55357143 2.36059957,4.64285714 2.18244111,4.73214286 C2.00428266,4.82142857 1.78158458,4.82142857 1.55888651,4.82142857 C1.24710921,4.82142857 0.97987152,4.77678571 0.801713062,4.64285714 C0.579014989,4.55357143 0.400856531,4.375 0.222698073,4.19642857 L0.311777302,4.0625 C0.356316916,4.01785714 0.356316916,4.01785714 0.400856531,4.01785714 C0.400856531,4.01785714 0.445396146,4.01785714 0.48993576,4.0625 C0.534475375,4.10714286 0.534475375,4.10714286 0.579014989,4.15178571 C0.623554604,4.19642857 0.668094218,4.24107143 0.712633833,4.28571429 C0.757173448,4.33035714 0.846252677,4.375 0.935331906,4.41964286 C1.02441113,4.46428571 1.11349036,4.50892857 1.20256959,4.50892857 C1.29164882,4.55357143 1.42526767,4.55357143 1.55888651,4.55357143 C1.73704497,4.55357143 1.91520343,4.50892857 2.04882227,4.46428571 C2.18244111,4.41964286 2.31605996,4.33035714 2.40513919,4.24107143 C2.49421842,4.15178571 2.58329764,4.01785714 2.62783726,3.92857143 C2.67237687,3.79464286 2.71691649,3.66071429 2.71691649,3.52678571 C2.71691649,3.34821429 2.67237687,3.21428571 2.62783726,3.125 C2.58329764,3.03571429 2.49421842,2.94642857 2.36059957,2.85714286 C2.27152034,2.76785714 2.1379015,2.72321429 2.00428266,2.67857143 C1.87066381,2.63392857 1.73704497,2.58928571 1.60342612,2.54464286 C1.46980728,2.5 1.33618844,2.45535714 1.20256959,2.41071429 C1.06895075,2.36607143 0.935331906,2.27678571 0.846252677,2.1875 C0.757173448,2.09821429 0.668094218,2.00892857 0.579014989,1.875 C0.534475375,1.74107143 0.48993576,1.5625 0.48993576,1.38392857 C0.48993576,1.25 0.534475375,1.07142857 0.579014989,0.9375 C0.623554604,0.803571429 0.712633833,0.669642857 0.846252677,0.580357143 C0.97987152,0.491071429 1.11349036,0.401785714 1.24710921,0.3125 C1.42526767,0.267857143 1.60342612,0.223214286 1.8261242,0.223214286 C2.04882227,0.223214286 2.27152034,0.267857143 2.4496788,0.357142857 C2.62783726,0.446428571 2.80599572,0.535714286 2.98415418,0.714285714 L2.7614561,0.758928571 L2.7614561,0.758928571 Z"></path>
                        <path d="M4.63211991,4.82142857 C4.40942184,4.82142857 4.23126338,4.77678571 4.14218415,4.64285714 C4.00856531,4.50892857 3.9640257,4.33035714 3.9640257,4.10714286 L3.9640257,1.91964286 L3.51862955,1.91964286 L3.47408994,1.91964286 L3.42955032,1.875 L3.42955032,1.74107143 L3.9640257,1.69642857 L4.05310493,0.535714286 C4.05310493,0.535714286 4.05310493,0.491071429 4.09764454,0.491071429 L4.14218415,0.491071429 L4.275803,0.491071429 L4.275803,1.69642857 L5.30021413,1.69642857 L5.30021413,1.91964286 L4.275803,1.91964286 L4.275803,4.10714286 C4.275803,4.19642857 4.275803,4.28571429 4.32034261,4.33035714 C4.36488223,4.375 4.36488223,4.46428571 4.40942184,4.50892857 C4.45396146,4.55357143 4.49850107,4.59821429 4.54304069,4.59821429 C4.5875803,4.59821429 4.63211991,4.64285714 4.72119914,4.64285714 C4.81027837,4.64285714 4.85481799,4.64285714 4.8993576,4.59821429 C4.94389722,4.55357143 4.98843683,4.55357143 5.03297645,4.50892857 C5.07751606,4.46428571 5.12205567,4.46428571 5.12205567,4.41964286 L5.16659529,4.375 C5.16659529,4.375 5.2111349,4.375 5.2111349,4.41964286 L5.30021413,4.55357143 C5.2111349,4.64285714 5.12205567,4.73214286 4.98843683,4.77678571 C4.8993576,4.77678571 4.76573876,4.82142857 4.63211991,4.82142857 L4.63211991,4.82142857 Z"></path>
                        <path d="M7.25995717,1.51785714 C7.48265525,1.51785714 7.70535332,1.5625 7.88351178,1.65178571 C8.06167024,1.74107143 8.19528908,1.83035714 8.32890792,1.96428571 C8.46252677,2.09821429 8.551606,2.27678571 8.59614561,2.5 C8.64068522,2.72321429 8.68522484,2.94642857 8.68522484,3.16964286 C8.68522484,3.4375 8.64068522,3.66071429 8.59614561,3.83928571 C8.551606,4.0625 8.41798715,4.19642857 8.32890792,4.375 C8.19528908,4.50892857 8.06167024,4.64285714 7.88351178,4.6875 C7.70535332,4.77678571 7.48265525,4.82142857 7.25995717,4.82142857 C7.0372591,4.82142857 6.81456103,4.77678571 6.63640257,4.6875 C6.45824411,4.59821429 6.32462527,4.50892857 6.19100642,4.375 C6.05738758,4.24107143 5.96830835,4.0625 5.92376874,3.83928571 C5.87922912,3.61607143 5.83468951,3.39285714 5.83468951,3.16964286 C5.83468951,2.90178571 5.87922912,2.67857143 5.92376874,2.5 C5.96830835,2.27678571 6.10192719,2.14285714 6.19100642,1.96428571 C6.32462527,1.83035714 6.45824411,1.69642857 6.63640257,1.65178571 C6.81456103,1.5625 7.0372591,1.51785714 7.25995717,1.51785714 L7.25995717,1.51785714 Z M7.25995717,4.55357143 C7.43811563,4.55357143 7.61627409,4.50892857 7.74989293,4.46428571 C7.88351178,4.41964286 8.01713062,4.28571429 8.10620985,4.19642857 C8.19528908,4.0625 8.28436831,3.92857143 8.32890792,3.75 C8.37344754,3.57142857 8.41798715,3.39285714 8.41798715,3.16964286 C8.41798715,2.94642857 8.37344754,2.76785714 8.32890792,2.58928571 C8.28436831,2.41071429 8.19528908,2.27678571 8.10620985,2.14285714 C8.01713062,2.00892857 7.88351178,1.91964286 7.74989293,1.875 C7.61627409,1.78571429 7.43811563,1.78571429 7.25995717,1.78571429 C7.08179872,1.78571429 6.90364026,1.83035714 6.77002141,1.875 C6.63640257,1.91964286 6.50278373,2.05357143 6.4137045,2.14285714 C6.32462527,2.27678571 6.23554604,2.41071429 6.19100642,2.58928571 C6.14646681,2.76785714 6.10192719,2.94642857 6.10192719,3.16964286 C6.10192719,3.39285714 6.14646681,3.57142857 6.19100642,3.75 C6.23554604,3.92857143 6.32462527,4.0625 6.4137045,4.19642857 C6.50278373,4.33035714 6.63640257,4.41964286 6.77002141,4.46428571 C6.90364026,4.55357143 7.08179872,4.55357143 7.25995717,4.55357143 L7.25995717,4.55357143 Z"></path>
                        <path d="M9.08608137,1.5625 L9.30877944,1.5625 C9.35331906,1.5625 9.35331906,1.5625 9.39785867,1.60714286 L9.44239829,1.65178571 L10.2441113,4.19642857 C10.2441113,4.24107143 10.288651,4.28571429 10.288651,4.33035714 C10.288651,4.375 10.288651,4.41964286 10.3331906,4.46428571 C10.3331906,4.41964286 10.3331906,4.375 10.3777302,4.33035714 C10.3777302,4.28571429 10.4222698,4.24107143 10.4222698,4.19642857 L11.2685225,1.65178571 C11.2685225,1.60714286 11.3130621,1.5625 11.3576017,1.5625 L11.4912206,1.5625 C11.5357602,1.5625 11.5802998,1.60714286 11.5802998,1.65178571 L12.4265525,4.19642857 C12.4710921,4.28571429 12.4710921,4.375 12.5156317,4.46428571 C12.5156317,4.41964286 12.5156317,4.375 12.5601713,4.33035714 C12.5601713,4.28571429 12.6047109,4.24107143 12.6047109,4.19642857 L13.406424,1.65178571 C13.406424,1.60714286 13.4509636,1.5625 13.4955032,1.5625 L13.7182013,1.5625 L12.6492505,4.77678571 L12.4265525,4.77678571 C12.3820128,4.77678571 12.3820128,4.73214286 12.3374732,4.73214286 L11.4466809,2.14285714 C11.4466809,2.09821429 11.4466809,2.09821429 11.4021413,2.05357143 C11.4021413,2.00892857 11.4021413,2.00892857 11.3576017,1.96428571 L11.3576017,2.05357143 C11.3576017,2.09821429 11.3576017,2.09821429 11.3130621,2.14285714 L10.4222698,4.73214286 C10.4222698,4.77678571 10.3777302,4.77678571 10.3331906,4.77678571 L10.1104925,4.77678571 L9.08608137,1.5625 L9.08608137,1.5625 Z"></path>
                        <path d="M16.3014989,4.77678571 C16.2569593,4.77678571 16.2124197,4.73214286 16.1678801,4.6875 L16.1233405,4.28571429 C16.0342612,4.375 15.945182,4.46428571 15.8561028,4.50892857 C15.7670236,4.59821429 15.6779443,4.64285714 15.5888651,4.6875 C15.4997859,4.73214286 15.4107066,4.77678571 15.2770878,4.77678571 C15.1880086,4.82142857 15.0543897,4.82142857 14.9207709,4.82142857 C14.8316916,4.82142857 14.6980728,4.82142857 14.6089936,4.77678571 C14.5199143,4.73214286 14.4308351,4.6875 14.3417559,4.64285714 C14.2526767,4.55357143 14.208137,4.50892857 14.1635974,4.375 C14.1190578,4.28571429 14.0745182,4.15178571 14.0745182,4.01785714 C14.0745182,3.88392857 14.1190578,3.75 14.208137,3.66071429 C14.2972163,3.52678571 14.3862955,3.4375 14.564454,3.34821429 C14.7426124,3.25892857 14.9207709,3.21428571 15.1880086,3.125 C15.4552463,3.08035714 15.7670236,3.03571429 16.1233405,3.03571429 L16.1233405,2.67857143 C16.1233405,2.36607143 16.0788009,2.14285714 15.945182,2.00892857 C15.8115632,1.83035714 15.6334047,1.78571429 15.366167,1.78571429 C15.2325482,1.78571429 15.0989293,1.78571429 14.9653105,1.83035714 C14.8762313,1.875 14.7426124,1.91964286 14.6980728,1.96428571 C14.6089936,2.00892857 14.564454,2.05357143 14.5199143,2.09821429 C14.4753747,2.14285714 14.4308351,2.14285714 14.3862955,2.14285714 C14.3417559,2.14285714 14.2972163,2.14285714 14.2972163,2.09821429 L14.2526767,2.00892857 C14.4308351,1.83035714 14.6089936,1.69642857 14.787152,1.60714286 C14.9653105,1.51785714 15.1880086,1.47321429 15.4107066,1.47321429 C15.5888651,1.47321429 15.7224839,1.51785714 15.8561028,1.5625 C15.9897216,1.60714286 16.0788009,1.69642857 16.1678801,1.78571429 C16.2569593,1.875 16.3014989,2.00892857 16.3460385,2.14285714 C16.3905782,2.27678571 16.3905782,2.45535714 16.3905782,2.63392857 L16.3905782,4.73214286 L16.3014989,4.73214286 L16.3014989,4.77678571 Z M15.0098501,4.59821429 C15.143469,4.59821429 15.2325482,4.59821429 15.366167,4.55357143 C15.4552463,4.50892857 15.5888651,4.50892857 15.6334047,4.41964286 C15.7224839,4.375 15.8115632,4.33035714 15.9006424,4.24107143 C15.9897216,4.15178571 16.0342612,4.10714286 16.1233405,4.01785714 L16.1233405,3.16964286 C15.8115632,3.16964286 15.5443255,3.21428571 15.3216274,3.25892857 C15.0989293,3.30357143 14.9207709,3.34821429 14.787152,3.39285714 C14.6535332,3.4375 14.5199143,3.52678571 14.4753747,3.61607143 C14.3862955,3.70535714 14.3862955,3.79464286 14.3862955,3.92857143 C14.3862955,4.01785714 14.3862955,4.15178571 14.4308351,4.19642857 C14.4753747,4.28571429 14.5199143,4.33035714 14.564454,4.375 C14.6089936,4.41964286 14.6980728,4.46428571 14.787152,4.46428571 C14.8316916,4.59821429 14.9207709,4.59821429 15.0098501,4.59821429 L15.0098501,4.59821429 Z"></path>
                        <path d="M17.3704497,4.77678571 L17.3704497,1.5625 L17.5486081,1.5625 C17.5931478,1.5625 17.5931478,1.5625 17.6376874,1.60714286 C17.6376874,1.60714286 17.682227,1.65178571 17.682227,1.69642857 L17.7267666,2.36607143 C17.8158458,2.09821429 17.9494647,1.91964286 18.1276231,1.74107143 C18.3057816,1.60714286 18.5284797,1.51785714 18.7511777,1.51785714 C18.840257,1.51785714 18.9293362,1.51785714 19.0184154,1.5625 C19.1074946,1.5625 19.1965739,1.60714286 19.2411135,1.65178571 L19.1965739,1.875 C19.1965739,1.91964286 19.1520343,1.91964286 19.1520343,1.91964286 L19.1074946,1.91964286 C19.062955,1.91964286 19.062955,1.91964286 19.0184154,1.875 C18.9738758,1.875 18.9293362,1.875 18.8847966,1.83035714 L18.7066381,1.83035714 C18.48394,1.83035714 18.261242,1.91964286 18.1276231,2.05357143 C17.9940043,2.1875 17.8603854,2.41071429 17.7713062,2.72321429 L17.7713062,4.82142857 L17.3704497,4.82142857 L17.3704497,4.77678571 Z"></path>
                        <path d="M22.0471092,1.69642857 C22.0471092,1.74107143 22.0471092,1.78571429 22.0025696,1.83035714 L19.9982869,4.55357143 L21.95803,4.55357143 L21.95803,4.77678571 L19.64197,4.77678571 L19.64197,4.64285714 C19.64197,4.59821429 19.64197,4.55357143 19.6865096,4.50892857 L21.6907923,1.78571429 L19.7310493,1.78571429 L19.7310493,1.5625 L22.0471092,1.5625 L22.0471092,1.69642857 L22.0471092,1.69642857 Z"></path>
                        <path d="M23.5169165,5.80357143 C23.5169165,5.84821429 23.4723769,5.84821429 23.4723769,5.89285714 C23.4723769,5.89285714 23.4278373,5.9375 23.3832976,5.9375 L23.1605996,5.9375 L23.7396146,4.6875 L22.4034261,1.60714286 L22.6706638,1.60714286 C22.7152034,1.60714286 22.7152034,1.60714286 22.759743,1.65178571 L22.8042827,1.69642857 L23.8732334,4.19642857 C23.8732334,4.24107143 23.917773,4.24107143 23.917773,4.28571429 C23.917773,4.33035714 23.917773,4.375 23.9623126,4.375 C23.9623126,4.33035714 23.9623126,4.28571429 24.0068522,4.28571429 C24.0068522,4.24107143 24.0513919,4.24107143 24.0513919,4.19642857 L25.1203426,1.69642857 C25.1203426,1.65178571 25.1648822,1.65178571 25.1648822,1.65178571 L25.2094218,1.65178571 L25.4321199,1.65178571 L23.5169165,5.80357143 L23.5169165,5.80357143 Z"></path>
                        <path d="M27.7036403,1.96428571 C27.7036403,2.00892857 27.6591006,2.00892857 27.614561,2.00892857 C27.5700214,2.00892857 27.5700214,2.00892857 27.5254818,1.96428571 C27.4809422,1.91964286 27.4364026,1.91964286 27.391863,1.875 C27.3473233,1.83035714 27.2582441,1.83035714 27.1691649,1.78571429 C27.0800857,1.74107143 26.9910064,1.74107143 26.8573876,1.74107143 C26.7237687,1.74107143 26.6346895,1.74107143 26.5456103,1.78571429 C26.456531,1.83035714 26.3674518,1.875 26.3229122,1.91964286 C26.2783726,1.96428571 26.1892934,2.05357143 26.1447537,2.09821429 C26.1002141,2.1875 26.1002141,2.23214286 26.1002141,2.32142857 C26.1002141,2.41071429 26.1447537,2.5 26.1892934,2.58928571 C26.233833,2.67857143 26.3229122,2.72321429 26.4119914,2.76785714 C26.5010707,2.8125 26.5901499,2.85714286 26.6792291,2.90178571 C26.7683084,2.94642857 26.9019272,2.94642857 26.9910064,2.99107143 C27.0800857,3.03571429 27.2137045,3.08035714 27.3027837,3.125 C27.391863,3.16964286 27.4809422,3.21428571 27.5700214,3.25892857 C27.6591006,3.30357143 27.7036403,3.39285714 27.7927195,3.48214286 C27.8372591,3.57142857 27.8817987,3.70535714 27.8817987,3.79464286 C27.8817987,3.92857143 27.8372591,4.0625 27.7927195,4.19642857 C27.7481799,4.33035714 27.6591006,4.41964286 27.5700214,4.50892857 C27.4809422,4.59821429 27.3473233,4.6875 27.2137045,4.73214286 C27.0800857,4.77678571 26.9019272,4.82142857 26.7237687,4.82142857 C26.5010707,4.82142857 26.3229122,4.77678571 26.1447537,4.73214286 C25.9665953,4.64285714 25.8329764,4.55357143 25.6993576,4.46428571 L25.7884368,4.375 C25.7884368,4.375 25.7884368,4.33035714 25.8329764,4.33035714 L25.8775161,4.33035714 C25.9220557,4.33035714 25.9220557,4.33035714 25.9665953,4.375 C26.0111349,4.41964286 26.0556745,4.46428571 26.1447537,4.46428571 C26.1892934,4.50892857 26.2783726,4.55357143 26.3674518,4.59821429 C26.456531,4.64285714 26.5901499,4.64285714 26.7237687,4.64285714 C26.8573876,4.64285714 26.9910064,4.64285714 27.0800857,4.59821429 C27.1691649,4.55357143 27.2582441,4.50892857 27.3473233,4.46428571 C27.4364026,4.41964286 27.4809422,4.33035714 27.5254818,4.24107143 C27.5700214,4.15178571 27.5700214,4.0625 27.5700214,3.97321429 C27.5700214,3.88392857 27.5254818,3.79464286 27.4809422,3.70535714 C27.4364026,3.61607143 27.3473233,3.57142857 27.3027837,3.52678571 C27.2137045,3.48214286 27.1246253,3.4375 27.035546,3.39285714 C26.9464668,3.34821429 26.812848,3.30357143 26.7237687,3.30357143 C26.5901499,3.25892857 26.5010707,3.21428571 26.4119914,3.16964286 C26.3229122,3.125 26.1892934,3.08035714 26.1447537,3.03571429 C26.0556745,2.99107143 26.0111349,2.90178571 25.9220557,2.8125 C25.8775161,2.72321429 25.8329764,2.63392857 25.8329764,2.5 C25.8329764,2.36607143 25.8775161,2.27678571 25.9220557,2.1875 C25.9665953,2.09821429 26.0556745,2.00892857 26.1447537,1.91964286 C26.233833,1.83035714 26.3674518,1.78571429 26.456531,1.74107143 C26.5901499,1.69642857 26.7237687,1.65178571 26.9019272,1.65178571 C27.0800857,1.65178571 27.2582441,1.69642857 27.4364026,1.74107143 C27.5700214,1.78571429 27.7481799,1.875 27.8372591,2.00892857 L27.7036403,1.96428571 L27.7036403,1.96428571 Z"></path>
                        <path d="M30.8214133,1.69642857 C30.8214133,1.74107143 30.8214133,1.78571429 30.7768737,1.83035714 L28.772591,4.55357143 L30.732334,4.55357143 L30.732334,4.77678571 L28.4162741,4.77678571 L28.4162741,4.64285714 C28.4162741,4.59821429 28.4162741,4.55357143 28.4608137,4.50892857 L30.4650964,1.78571429 L28.5053533,1.78571429 L28.5053533,1.5625 L30.8214133,1.5625 L30.8214133,1.69642857 L30.8214133,1.69642857 Z"></path>
                        <path d="M32.7811563,1.51785714 C32.9593148,1.51785714 33.1374732,1.5625 33.2710921,1.60714286 C33.4047109,1.65178571 33.5383298,1.74107143 33.6719486,1.875 C33.8055675,2.00892857 33.8501071,2.14285714 33.9391863,2.32142857 C33.9837259,2.5 34.0282655,2.67857143 34.0282655,2.90178571 L34.0282655,2.99107143 L33.9837259,3.03571429 L31.667666,3.03571429 L31.667666,3.08035714 C31.667666,3.30357143 31.7122056,3.52678571 31.7567452,3.70535714 C31.8012848,3.88392857 31.890364,4.01785714 31.9794433,4.15178571 C32.0685225,4.28571429 32.2021413,4.375 32.3357602,4.41964286 C32.469379,4.46428571 32.6475375,4.50892857 32.8256959,4.50892857 C33.0038544,4.50892857 33.1374732,4.50892857 33.2265525,4.46428571 C33.3601713,4.41964286 33.4492505,4.375 33.5383298,4.33035714 C33.627409,4.28571429 33.6719486,4.24107143 33.7164882,4.19642857 C33.7610278,4.15178571 33.8055675,4.15178571 33.8055675,4.15178571 C33.8501071,4.15178571 33.8501071,4.15178571 33.8501071,4.19642857 L33.9391863,4.28571429 C33.8946467,4.33035714 33.8055675,4.41964286 33.7164882,4.46428571 C33.627409,4.50892857 33.5383298,4.55357143 33.4492505,4.59821429 C33.3601713,4.64285714 33.2265525,4.6875 33.1374732,4.6875 C33.0038544,4.73214286 32.9147752,4.73214286 32.7811563,4.73214286 C32.5584582,4.73214286 32.3802998,4.6875 32.2021413,4.59821429 C32.0239829,4.50892857 31.8458244,4.41964286 31.7567452,4.28571429 C31.6231263,4.15178571 31.5340471,3.97321429 31.4449679,3.75 C31.3558887,3.52678571 31.3558887,3.30357143 31.3558887,3.03571429 C31.3558887,2.8125 31.4004283,2.58928571 31.4449679,2.41071429 C31.4895075,2.23214286 31.6231263,2.05357143 31.7122056,1.91964286 C31.8458244,1.78571429 31.9794433,1.65178571 32.1576017,1.60714286 C32.3802998,1.5625 32.5584582,1.51785714 32.7811563,1.51785714 L32.7811563,1.51785714 Z M32.7811563,1.74107143 C32.6029979,1.74107143 32.469379,1.78571429 32.3357602,1.83035714 C32.2021413,1.875 32.1130621,1.96428571 31.9794433,2.05357143 C31.890364,2.14285714 31.8012848,2.27678571 31.7567452,2.41071429 C31.7122056,2.54464286 31.667666,2.67857143 31.6231263,2.85714286 L33.7164882,2.85714286 C33.7164882,2.67857143 33.6719486,2.54464286 33.627409,2.41071429 C33.5828694,2.27678571 33.4937901,2.14285714 33.4492505,2.05357143 C33.3601713,1.96428571 33.2710921,1.875 33.1374732,1.83035714 C33.048394,1.78571429 32.9593148,1.74107143 32.7811563,1.74107143 L32.7811563,1.74107143 Z"></path>
                        <path d="M34.8745182,4.77678571 L34.8745182,1.5625 L35.0526767,1.5625 C35.0972163,1.5625 35.1417559,1.60714286 35.1417559,1.65178571 L35.1862955,2.14285714 C35.3199143,1.96428571 35.4980728,1.83035714 35.6762313,1.69642857 C35.8543897,1.60714286 36.0770878,1.51785714 36.2997859,1.51785714 C36.4779443,1.51785714 36.6115632,1.5625 36.745182,1.60714286 C36.8788009,1.65178571 36.9678801,1.74107143 37.0569593,1.83035714 C37.1460385,1.91964286 37.1905782,2.05357143 37.2351178,2.23214286 C37.2796574,2.36607143 37.324197,2.54464286 37.324197,2.72321429 L37.324197,4.77678571 L37.0124197,4.77678571 L37.0124197,2.72321429 C37.0124197,2.41071429 36.9233405,2.1875 36.7897216,2.00892857 C36.6561028,1.83035714 36.4334047,1.74107143 36.166167,1.74107143 C35.943469,1.74107143 35.7653105,1.78571429 35.587152,1.91964286 C35.4089936,2.00892857 35.2308351,2.1875 35.0972163,2.36607143 L35.0972163,4.77678571 L34.8745182,4.77678571 L34.8745182,4.77678571 Z"></path>
                        <path d="M38.8385439,0.446428571 C38.8385439,0.491071429 38.8385439,0.535714286 38.7940043,0.535714286 C38.7940043,0.580357143 38.7494647,0.580357143 38.7494647,0.625 C38.7049251,0.669642857 38.7049251,0.669642857 38.6603854,0.669642857 C38.6158458,0.669642857 38.5713062,0.714285714 38.5713062,0.714285714 C38.5267666,0.714285714 38.482227,0.714285714 38.482227,0.669642857 C38.4376874,0.669642857 38.4376874,0.625 38.3931478,0.625 C38.3486081,0.580357143 38.3486081,0.580357143 38.3486081,0.535714286 C38.3486081,0.491071429 38.3040685,0.446428571 38.3040685,0.446428571 C38.3040685,0.401785714 38.3040685,0.357142857 38.3486081,0.357142857 C38.3486081,0.3125 38.3931478,0.267857143 38.3931478,0.267857143 C38.4376874,0.223214286 38.4376874,0.223214286 38.482227,0.223214286 C38.5267666,0.223214286 38.5713062,0.178571429 38.5713062,0.178571429 C38.6158458,0.178571429 38.6603854,0.178571429 38.6603854,0.223214286 C38.7049251,0.223214286 38.7049251,0.267857143 38.7494647,0.267857143 C38.7940043,0.3125 38.7940043,0.3125 38.7940043,0.357142857 C38.8385439,0.401785714 38.8385439,0.446428571 38.8385439,0.446428571 L38.8385439,0.446428571 Z M38.7049251,1.5625 L38.7049251,4.77678571 L38.3931478,4.77678571 L38.3931478,1.5625 L38.7049251,1.5625 L38.7049251,1.5625 Z"></path>
                        <path d="M41.0655246,1.51785714 C41.2436831,1.51785714 41.4218415,1.5625 41.5554604,1.60714286 C41.6890792,1.65178571 41.8226981,1.74107143 41.9563169,1.875 C42.0899358,2.00892857 42.1344754,2.14285714 42.2235546,2.32142857 C42.2680942,2.5 42.3126338,2.67857143 42.3126338,2.90178571 L42.3126338,2.99107143 L42.2680942,3.03571429 L39.9520343,3.03571429 L39.9520343,3.08035714 C39.9520343,3.30357143 39.9965739,3.52678571 40.0411135,3.70535714 C40.0856531,3.88392857 40.1747323,4.01785714 40.2638116,4.15178571 C40.3528908,4.28571429 40.4865096,4.375 40.6201285,4.41964286 C40.7537473,4.46428571 40.9319058,4.50892857 41.1100642,4.50892857 C41.2882227,4.50892857 41.4218415,4.50892857 41.5109208,4.46428571 C41.6445396,4.41964286 41.7336188,4.375 41.8226981,4.33035714 C41.9117773,4.28571429 41.9563169,4.24107143 42.0008565,4.19642857 C42.0453961,4.15178571 42.0899358,4.15178571 42.0899358,4.15178571 C42.1344754,4.15178571 42.1344754,4.15178571 42.1344754,4.19642857 L42.2235546,4.28571429 C42.179015,4.33035714 42.0899358,4.41964286 42.0008565,4.46428571 C41.9117773,4.50892857 41.8226981,4.55357143 41.7336188,4.59821429 C41.6445396,4.64285714 41.5109208,4.6875 41.4218415,4.6875 C41.2882227,4.73214286 41.1991435,4.73214286 41.0655246,4.73214286 C40.8428266,4.73214286 40.6646681,4.6875 40.4865096,4.59821429 C40.3083512,4.50892857 40.1301927,4.41964286 40.0411135,4.28571429 C39.9074946,4.15178571 39.8184154,3.97321429 39.7293362,3.75 C39.640257,3.52678571 39.640257,3.30357143 39.640257,3.03571429 C39.640257,2.8125 39.6847966,2.58928571 39.7293362,2.41071429 C39.7738758,2.23214286 39.9074946,2.05357143 39.9965739,1.91964286 C40.1301927,1.78571429 40.2638116,1.65178571 40.44197,1.60714286 C40.6201285,1.5625 40.8428266,1.51785714 41.0655246,1.51785714 L41.0655246,1.51785714 Z M41.0655246,1.74107143 C40.8873662,1.74107143 40.7537473,1.78571429 40.6201285,1.83035714 C40.4865096,1.875 40.3974304,1.96428571 40.2638116,2.05357143 C40.1747323,2.14285714 40.0856531,2.27678571 40.0411135,2.41071429 C39.9965739,2.54464286 39.9520343,2.67857143 39.9074946,2.85714286 L42.0008565,2.85714286 C42.0008565,2.67857143 41.9563169,2.54464286 41.9117773,2.41071429 C41.8672377,2.27678571 41.7781585,2.14285714 41.7336188,2.05357143 C41.6445396,1.96428571 41.5554604,1.875 41.4218415,1.83035714 C41.3327623,1.78571429 41.1991435,1.74107143 41.0655246,1.74107143 L41.0655246,1.74107143 Z"></path>
                        <path d="M44.3614561,4.77678571 L44.3614561,1.5625 L44.5396146,1.5625 C44.5841542,1.5625 44.6286938,1.60714286 44.6286938,1.65178571 L44.6732334,2.14285714 C44.8068522,1.96428571 44.9850107,1.83035714 45.1631692,1.69642857 C45.3413276,1.60714286 45.5640257,1.51785714 45.8312634,1.51785714 C46.0094218,1.51785714 46.1430407,1.5625 46.2766595,1.60714286 C46.4102784,1.65178571 46.4993576,1.74107143 46.5884368,1.83035714 C46.6775161,1.91964286 46.7220557,2.05357143 46.8111349,2.23214286 C46.8556745,2.36607143 46.8556745,2.54464286 46.8556745,2.72321429 L46.8556745,4.77678571 L46.5438972,4.77678571 L46.5438972,2.72321429 C46.5438972,2.41071429 46.454818,2.1875 46.3211991,2.00892857 C46.1875803,1.83035714 45.9648822,1.74107143 45.6976445,1.74107143 C45.4749465,1.74107143 45.296788,1.78571429 45.1186296,1.91964286 C44.9404711,2.00892857 44.7623126,2.1875 44.6286938,2.36607143 L44.6286938,4.77678571 L44.3614561,4.77678571 L44.3614561,4.77678571 Z"></path>
                        <path d="M49.8843683,4.77678571 C49.8398287,4.77678571 49.7952891,4.73214286 49.7507495,4.6875 L49.7062099,4.28571429 C49.6171306,4.375 49.5280514,4.46428571 49.4389722,4.50892857 C49.3498929,4.59821429 49.2608137,4.64285714 49.1717345,4.6875 C49.0826552,4.73214286 48.993576,4.77678571 48.8599572,4.77678571 C48.7263383,4.82142857 48.6372591,4.82142857 48.5036403,4.82142857 C48.414561,4.82142857 48.2809422,4.82142857 48.191863,4.77678571 C48.1027837,4.73214286 48.0137045,4.6875 47.9246253,4.64285714 C47.835546,4.55357143 47.7910064,4.50892857 47.7464668,4.375 C47.7019272,4.28571429 47.6573876,4.15178571 47.6573876,4.01785714 C47.6573876,3.88392857 47.7019272,3.75 47.7910064,3.66071429 C47.8800857,3.52678571 47.9691649,3.4375 48.1473233,3.34821429 C48.3254818,3.25892857 48.5036403,3.21428571 48.7708779,3.125 C49.0381156,3.08035714 49.3498929,3.03571429 49.7062099,3.03571429 L49.7062099,2.67857143 C49.7062099,2.36607143 49.6616702,2.14285714 49.5280514,2.00892857 C49.3944325,1.83035714 49.2162741,1.78571429 48.9490364,1.78571429 C48.8154176,1.78571429 48.6817987,1.78571429 48.5481799,1.83035714 C48.4591006,1.875 48.3700214,1.91964286 48.2809422,1.96428571 C48.191863,2.00892857 48.1473233,2.05357143 48.1027837,2.09821429 C48.0582441,2.14285714 48.0137045,2.14285714 47.9691649,2.14285714 C47.9246253,2.14285714 47.8800857,2.14285714 47.8800857,2.09821429 L47.835546,2.00892857 C48.0137045,1.83035714 48.191863,1.69642857 48.3700214,1.60714286 C48.5481799,1.51785714 48.7708779,1.47321429 48.993576,1.47321429 C49.1717345,1.47321429 49.3053533,1.51785714 49.4389722,1.5625 C49.572591,1.60714286 49.6616702,1.69642857 49.7507495,1.78571429 C49.8398287,1.875 49.8843683,2.00892857 49.9289079,2.14285714 C49.9734475,2.27678571 49.9734475,2.45535714 49.9734475,2.63392857 L49.9734475,4.73214286 L49.8843683,4.73214286 L49.8843683,4.77678571 Z M48.5927195,4.59821429 C48.7263383,4.59821429 48.8154176,4.59821429 48.9490364,4.55357143 C49.0381156,4.50892857 49.1717345,4.50892857 49.2608137,4.41964286 C49.3498929,4.375 49.4389722,4.33035714 49.5280514,4.24107143 C49.6171306,4.15178571 49.6616702,4.10714286 49.7507495,4.01785714 L49.7507495,3.16964286 C49.4389722,3.16964286 49.1717345,3.21428571 48.9490364,3.25892857 C48.7263383,3.30357143 48.5481799,3.34821429 48.414561,3.39285714 C48.2809422,3.4375 48.1473233,3.52678571 48.1027837,3.61607143 C48.0582441,3.70535714 48.0137045,3.79464286 48.0137045,3.92857143 C48.0137045,4.01785714 48.0137045,4.15178571 48.0582441,4.19642857 C48.1027837,4.28571429 48.1473233,4.33035714 48.191863,4.375 C48.2364026,4.41964286 48.3254818,4.46428571 48.414561,4.46428571 C48.414561,4.59821429 48.5036403,4.59821429 48.5927195,4.59821429 L48.5927195,4.59821429 Z"></path>
                        <path d="M52.7794433,2.72321429 L52.7794433,4.77678571 L52.467666,4.77678571 L52.467666,0.223214286 L53.6256959,0.223214286 C54.1601713,0.223214286 54.5610278,0.3125 54.7837259,0.535714286 C55.0509636,0.758928571 55.1845824,1.02678571 55.1845824,1.42857143 C55.1845824,1.60714286 55.1400428,1.74107143 55.0955032,1.91964286 C55.0509636,2.05357143 54.9618844,2.1875 54.8282655,2.27678571 C54.6946467,2.36607143 54.5610278,2.45535714 54.427409,2.54464286 C54.2492505,2.63392857 54.0710921,2.67857143 53.8929336,2.67857143 C53.9374732,2.72321429 53.9820128,2.76785714 54.0265525,2.8125 L55.585439,4.77678571 L55.3182013,4.77678571 L55.2291221,4.77678571 C55.1845824,4.77678571 55.1845824,4.73214286 55.1400428,4.73214286 L53.6702355,2.90178571 C53.6256959,2.85714286 53.5811563,2.8125 53.5366167,2.8125 C53.4920771,2.8125 53.4475375,2.76785714 53.3584582,2.76785714 L52.7794433,2.76785714 L52.7794433,2.72321429 Z M52.7794433,2.45535714 L53.5811563,2.45535714 C53.8038544,2.45535714 53.9820128,2.41071429 54.1156317,2.36607143 C54.2937901,2.32142857 54.427409,2.23214286 54.5164882,2.14285714 C54.6055675,2.05357143 54.6946467,1.96428571 54.7837259,1.83035714 C54.8282655,1.69642857 54.8728051,1.5625 54.8728051,1.38392857 C54.8728051,1.07142857 54.7837259,0.803571429 54.5610278,0.669642857 C54.3383298,0.535714286 54.0265525,0.446428571 53.6256959,0.446428571 L52.7794433,0.446428571 L52.7794433,2.45535714 L52.7794433,2.45535714 Z"></path>
                        <path d="M58.3468951,1.69642857 C58.3468951,1.74107143 58.3468951,1.78571429 58.3023555,1.83035714 L56.2980728,4.55357143 L58.2578158,4.55357143 L58.2578158,4.77678571 L55.9417559,4.77678571 L55.9417559,4.64285714 C55.9417559,4.59821429 55.9417559,4.55357143 55.9862955,4.50892857 L57.9905782,1.78571429 L56.0308351,1.78571429 L56.0308351,1.5625 L58.3468951,1.5625 L58.3468951,1.69642857 L58.3468951,1.69642857 Z"></path>
                        <path d="M60.3511777,1.51785714 C60.5293362,1.51785714 60.7074946,1.5625 60.8411135,1.60714286 C60.9747323,1.65178571 61.1083512,1.74107143 61.24197,1.875 C61.3755889,2.00892857 61.4646681,2.14285714 61.5092077,2.32142857 C61.5537473,2.5 61.5982869,2.67857143 61.5982869,2.90178571 L61.5982869,2.99107143 L61.5537473,3.03571429 L59.2376874,3.03571429 L59.2376874,3.08035714 C59.2376874,3.30357143 59.282227,3.52678571 59.3267666,3.70535714 C59.3713062,3.88392857 59.4603854,4.01785714 59.5494647,4.15178571 C59.6385439,4.28571429 59.7721627,4.375 59.9057816,4.41964286 C60.0394004,4.46428571 60.2175589,4.50892857 60.3957173,4.50892857 C60.5738758,4.50892857 60.7074946,4.50892857 60.7965739,4.46428571 C60.9301927,4.41964286 61.0192719,4.375 61.1083512,4.33035714 C61.1974304,4.28571429 61.24197,4.24107143 61.2865096,4.19642857 C61.3310493,4.15178571 61.3755889,4.15178571 61.3755889,4.15178571 C61.4201285,4.15178571 61.4201285,4.15178571 61.4201285,4.19642857 L61.5092077,4.28571429 C61.4646681,4.33035714 61.3755889,4.41964286 61.2865096,4.46428571 C61.1974304,4.50892857 61.1083512,4.55357143 61.0192719,4.59821429 C60.9301927,4.64285714 60.7965739,4.6875 60.7074946,4.6875 C60.5738758,4.73214286 60.4847966,4.73214286 60.3511777,4.73214286 C60.1284797,4.73214286 59.9503212,4.6875 59.7721627,4.59821429 C59.5940043,4.50892857 59.4603854,4.41964286 59.3267666,4.28571429 C59.1931478,4.15178571 59.1040685,3.97321429 59.0149893,3.75 C58.9259101,3.52678571 58.9259101,3.30357143 58.9259101,3.03571429 C58.9259101,2.8125 58.9704497,2.58928571 59.0149893,2.41071429 C59.0595289,2.23214286 59.1931478,2.05357143 59.282227,1.91964286 C59.4158458,1.78571429 59.5494647,1.65178571 59.7276231,1.60714286 C59.9057816,1.5625 60.1284797,1.51785714 60.3511777,1.51785714 L60.3511777,1.51785714 Z M60.3511777,1.74107143 C60.1730193,1.74107143 60.0394004,1.78571429 59.9057816,1.83035714 C59.7721627,1.875 59.6830835,1.96428571 59.5494647,2.05357143 C59.4603854,2.14285714 59.3713062,2.27678571 59.3267666,2.41071429 C59.282227,2.54464286 59.2376874,2.67857143 59.1931478,2.85714286 L61.2865096,2.85714286 C61.2865096,2.67857143 61.24197,2.54464286 61.1974304,2.41071429 C61.1528908,2.27678571 61.0638116,2.14285714 61.0192719,2.05357143 C60.9301927,1.96428571 60.8411135,1.875 60.7074946,1.83035714 C60.6184154,1.78571429 60.4847966,1.74107143 60.3511777,1.74107143 L60.3511777,1.74107143 Z"></path>
                        <path d="M64.4933619,2.00892857 L64.4933619,2.00892857 C64.4488223,2.05357143 64.4488223,2.05357143 64.4042827,2.05357143 C64.4042827,2.05357143 64.359743,2.05357143 64.3152034,2.00892857 C64.2706638,1.96428571 64.2261242,1.96428571 64.1815846,1.91964286 C64.137045,1.875 64.0479657,1.875 63.9588865,1.83035714 C63.8698073,1.78571429 63.7361884,1.78571429 63.6025696,1.78571429 C63.4244111,1.78571429 63.2462527,1.83035714 63.1126338,1.875 C62.979015,1.91964286 62.8453961,2.05357143 62.7563169,2.14285714 C62.6672377,2.27678571 62.5781585,2.41071429 62.5336188,2.58928571 C62.4890792,2.76785714 62.4445396,2.94642857 62.4445396,3.16964286 C62.4445396,3.39285714 62.4890792,3.61607143 62.5336188,3.75 C62.5781585,3.92857143 62.6672377,4.0625 62.7563169,4.19642857 C62.8453961,4.33035714 62.979015,4.41964286 63.1126338,4.46428571 C63.2462527,4.50892857 63.3798715,4.55357143 63.55803,4.55357143 C63.6916488,4.55357143 63.8252677,4.55357143 63.9588865,4.50892857 C64.0479657,4.46428571 64.137045,4.41964286 64.2261242,4.375 C64.2706638,4.33035714 64.359743,4.28571429 64.4042827,4.24107143 C64.4488223,4.19642857 64.4933619,4.19642857 64.4933619,4.19642857 C64.5379015,4.19642857 64.5379015,4.19642857 64.5379015,4.24107143 L64.6269807,4.33035714 C64.5824411,4.375 64.4933619,4.46428571 64.4488223,4.50892857 C64.359743,4.55357143 64.2706638,4.59821429 64.1815846,4.64285714 C64.0925054,4.6875 64.0034261,4.73214286 63.8698073,4.73214286 C63.7807281,4.77678571 63.6471092,4.77678571 63.5134904,4.77678571 C63.2907923,4.77678571 63.1126338,4.73214286 62.9344754,4.6875 C62.7563169,4.59821429 62.6226981,4.50892857 62.4890792,4.375 C62.3554604,4.24107143 62.2663812,4.0625 62.2218415,3.83928571 C62.1773019,3.61607143 62.1327623,3.39285714 62.1327623,3.125 C62.1327623,2.90178571 62.1773019,2.67857143 62.2218415,2.45535714 C62.2663812,2.23214286 62.4,2.09821429 62.4890792,1.91964286 C62.6226981,1.78571429 62.7563169,1.65178571 62.9344754,1.5625 C63.1126338,1.47321429 63.3353319,1.42857143 63.55803,1.42857143 C63.7807281,1.42857143 63.9588865,1.47321429 64.0925054,1.51785714 C64.2706638,1.60714286 64.4042827,1.69642857 64.4933619,1.78571429 L64.4933619,2.00892857 L64.4933619,2.00892857 Z"></path>
                        <path d="M67.4775161,1.69642857 C67.4775161,1.74107143 67.4775161,1.78571429 67.4329764,1.83035714 L65.4286938,4.55357143 L67.3884368,4.55357143 L67.3884368,4.77678571 L65.0278373,4.77678571 L65.0278373,4.64285714 C65.0278373,4.59821429 65.0278373,4.55357143 65.0723769,4.50892857 L67.0766595,1.78571429 L65.1169165,1.78571429 L65.1169165,1.5625 L67.4329764,1.5625 L67.4329764,1.69642857 L67.4775161,1.69642857 Z"></path>
                        <path d="M70.0608137,2.72321429 L70.0608137,4.77678571 L69.7490364,4.77678571 L69.7490364,0.223214286 L70.9070664,0.223214286 C71.4415418,0.223214286 71.8423983,0.3125 72.0650964,0.535714286 C72.332334,0.758928571 72.4659529,1.02678571 72.4659529,1.42857143 C72.4659529,1.60714286 72.4214133,1.74107143 72.3768737,1.91964286 C72.332334,2.05357143 72.2432548,2.1875 72.109636,2.27678571 C71.9760171,2.36607143 71.8423983,2.45535714 71.7087794,2.54464286 C71.530621,2.63392857 71.3524625,2.67857143 71.1743041,2.67857143 C71.2188437,2.72321429 71.2633833,2.76785714 71.3079229,2.8125 L72.8668094,4.77678571 L72.5995717,4.77678571 L72.5104925,4.77678571 C72.4659529,4.77678571 72.4659529,4.73214286 72.4214133,4.73214286 L70.951606,2.90178571 C70.9070664,2.85714286 70.8625268,2.8125 70.8179872,2.8125 C70.7734475,2.8125 70.7289079,2.76785714 70.6398287,2.76785714 L70.0608137,2.76785714 L70.0608137,2.72321429 Z M70.0608137,2.45535714 L70.8625268,2.45535714 C71.0852248,2.45535714 71.2633833,2.41071429 71.3970021,2.36607143 C71.5751606,2.32142857 71.7087794,2.23214286 71.7978587,2.14285714 C71.8869379,2.05357143 71.9760171,1.96428571 72.0650964,1.83035714 C72.109636,1.69642857 72.1541756,1.5625 72.1541756,1.38392857 C72.1541756,1.07142857 72.0650964,0.803571429 71.8423983,0.669642857 C71.6197002,0.535714286 71.3079229,0.446428571 70.9070664,0.446428571 L70.0608137,0.446428571 L70.0608137,2.45535714 L70.0608137,2.45535714 Z"></path>
                        <path d="M74.7374732,1.51785714 C74.9601713,1.51785714 75.1828694,1.5625 75.3610278,1.65178571 C75.5391863,1.74107143 75.6728051,1.83035714 75.806424,1.96428571 C75.9400428,2.09821429 76.0291221,2.27678571 76.0736617,2.5 C76.1182013,2.72321429 76.1627409,2.94642857 76.1627409,3.16964286 C76.1627409,3.4375 76.1182013,3.66071429 76.0736617,3.83928571 C75.9845824,4.0625 75.8955032,4.19642857 75.806424,4.375 C75.6728051,4.50892857 75.5391863,4.64285714 75.3610278,4.6875 C75.1828694,4.77678571 74.9601713,4.82142857 74.7374732,4.82142857 C74.5147752,4.82142857 74.2920771,4.77678571 74.1139186,4.6875 C73.9357602,4.59821429 73.7576017,4.50892857 73.6685225,4.375 C73.5349036,4.24107143 73.4458244,4.0625 73.4012848,3.83928571 C73.3567452,3.61607143 73.3122056,3.39285714 73.3122056,3.16964286 C73.3122056,2.90178571 73.3567452,2.67857143 73.4012848,2.5 C73.4458244,2.27678571 73.5794433,2.14285714 73.6685225,1.96428571 C73.8021413,1.83035714 73.9357602,1.69642857 74.1139186,1.65178571 C74.2920771,1.5625 74.5147752,1.51785714 74.7374732,1.51785714 L74.7374732,1.51785714 Z M74.7374732,4.55357143 C74.9156317,4.55357143 75.0937901,4.50892857 75.227409,4.46428571 C75.3610278,4.41964286 75.4946467,4.28571429 75.5837259,4.19642857 C75.6728051,4.0625 75.7618844,3.92857143 75.806424,3.75 C75.8509636,3.57142857 75.8955032,3.39285714 75.8955032,3.16964286 C75.8955032,2.94642857 75.8509636,2.76785714 75.806424,2.58928571 C75.7618844,2.41071429 75.6728051,2.27678571 75.5837259,2.14285714 C75.4946467,2.00892857 75.3610278,1.91964286 75.227409,1.875 C75.0937901,1.78571429 74.9156317,1.78571429 74.7374732,1.78571429 C74.5593148,1.78571429 74.3811563,1.83035714 74.2475375,1.875 C74.1139186,1.91964286 73.9802998,2.05357143 73.8912206,2.14285714 C73.8021413,2.27678571 73.7130621,2.41071429 73.6685225,2.58928571 C73.6239829,2.76785714 73.5794433,2.94642857 73.5794433,3.16964286 C73.5794433,3.39285714 73.6239829,3.57142857 73.6685225,3.75 C73.7130621,3.92857143 73.8021413,4.0625 73.8912206,4.19642857 C73.9802998,4.33035714 74.1139186,4.41964286 74.2475375,4.46428571 C74.3811563,4.55357143 74.5593148,4.55357143 74.7374732,4.55357143 L74.7374732,4.55357143 Z"></path>
                        <path d="M79.1023555,1.69642857 C79.1023555,1.74107143 79.1023555,1.78571429 79.0578158,1.83035714 L77.0535332,4.55357143 L79.0132762,4.55357143 L79.0132762,4.77678571 L76.6972163,4.77678571 L76.6972163,4.64285714 C76.6972163,4.59821429 76.6972163,4.55357143 76.7417559,4.50892857 L78.7460385,1.78571429 L76.7862955,1.78571429 L76.7862955,1.5625 L79.1023555,1.5625 L79.1023555,1.69642857 L79.1023555,1.69642857 Z"></path>
                        <path d="M79.4141328,1.5625 L79.6368308,1.5625 C79.6813704,1.5625 79.6813704,1.5625 79.7259101,1.60714286 L79.7704497,1.65178571 L80.5721627,4.19642857 C80.5721627,4.24107143 80.6167024,4.28571429 80.6167024,4.33035714 C80.6167024,4.375 80.6167024,4.41964286 80.661242,4.46428571 C80.661242,4.41964286 80.7057816,4.375 80.7057816,4.33035714 C80.7057816,4.28571429 80.7503212,4.24107143 80.7503212,4.19642857 L81.5965739,1.65178571 C81.5965739,1.60714286 81.6411135,1.5625 81.6856531,1.5625 L81.8192719,1.5625 C81.8638116,1.5625 81.9083512,1.60714286 81.9083512,1.65178571 L82.7546039,4.19642857 C82.7991435,4.28571429 82.7991435,4.375 82.8436831,4.46428571 C82.8436831,4.41964286 82.8436831,4.375 82.8882227,4.33035714 C82.8882227,4.28571429 82.9327623,4.24107143 82.9327623,4.19642857 L83.7344754,1.65178571 C83.7344754,1.60714286 83.779015,1.5625 83.8235546,1.5625 L84.0462527,1.5625 L82.9773019,4.77678571 L82.7546039,4.77678571 C82.7100642,4.77678571 82.7100642,4.73214286 82.6655246,4.73214286 L81.7747323,2.14285714 C81.7747323,2.09821429 81.7747323,2.09821429 81.7301927,2.05357143 C81.7301927,2.00892857 81.7301927,2.00892857 81.6856531,1.96428571 L81.6856531,2.05357143 C81.6856531,2.09821429 81.6856531,2.09821429 81.6411135,2.14285714 L80.7503212,4.73214286 C80.7503212,4.77678571 80.7057816,4.77678571 80.661242,4.77678571 L80.4385439,4.77678571 L79.4141328,1.5625 L79.4141328,1.5625 Z"></path>
                        <path d="M85.8278373,1.51785714 C86.0505353,1.51785714 86.2732334,1.5625 86.4513919,1.65178571 C86.6295503,1.74107143 86.7631692,1.83035714 86.896788,1.96428571 C87.0304069,2.09821429 87.1194861,2.27678571 87.1640257,2.5 C87.2085653,2.72321429 87.2531049,2.94642857 87.2531049,3.16964286 C87.2531049,3.4375 87.2085653,3.66071429 87.1640257,3.83928571 C87.1194861,4.0625 86.9858672,4.19642857 86.896788,4.375 C86.7631692,4.50892857 86.6295503,4.64285714 86.4513919,4.6875 C86.2732334,4.77678571 86.0505353,4.82142857 85.8278373,4.82142857 C85.6051392,4.82142857 85.3824411,4.77678571 85.2042827,4.6875 C85.0261242,4.59821429 84.8925054,4.50892857 84.7588865,4.375 C84.6252677,4.24107143 84.5361884,4.0625 84.4916488,3.83928571 C84.4471092,3.61607143 84.4025696,3.39285714 84.4025696,3.16964286 C84.4025696,2.90178571 84.4471092,2.67857143 84.4916488,2.5 C84.5361884,2.27678571 84.6698073,2.14285714 84.7588865,1.96428571 C84.8925054,1.83035714 85.0261242,1.69642857 85.2042827,1.65178571 C85.3824411,1.5625 85.6051392,1.51785714 85.8278373,1.51785714 L85.8278373,1.51785714 Z M85.8278373,4.55357143 C86.0059957,4.55357143 86.1841542,4.50892857 86.317773,4.46428571 C86.4513919,4.41964286 86.5850107,4.28571429 86.6740899,4.19642857 C86.7631692,4.0625 86.8522484,3.92857143 86.896788,3.75 C86.9413276,3.57142857 86.9858672,3.39285714 86.9858672,3.16964286 C86.9858672,2.94642857 86.9413276,2.76785714 86.896788,2.58928571 C86.8522484,2.41071429 86.7631692,2.27678571 86.6740899,2.14285714 C86.5850107,2.00892857 86.4513919,1.91964286 86.317773,1.875 C86.1841542,1.78571429 86.0059957,1.78571429 85.8278373,1.78571429 C85.6496788,1.78571429 85.4715203,1.83035714 85.3379015,1.875 C85.2042827,1.91964286 85.0706638,2.05357143 84.9815846,2.14285714 C84.8925054,2.27678571 84.8034261,2.41071429 84.7588865,2.58928571 C84.7143469,2.76785714 84.6698073,2.94642857 84.6698073,3.16964286 C84.6698073,3.39285714 84.7143469,3.57142857 84.7588865,3.75 C84.8034261,3.92857143 84.8925054,4.0625 84.9815846,4.19642857 C85.0706638,4.33035714 85.2042827,4.41964286 85.3379015,4.46428571 C85.4715203,4.55357143 85.6496788,4.55357143 85.8278373,4.55357143 L85.8278373,4.55357143 Z"></path>
                        <path d="M88.4556745,1.5625 L88.4556745,5.17857143 C88.4556745,5.26785714 88.4556745,5.40178571 88.4111349,5.49107143 C88.3665953,5.58035714 88.3220557,5.66964286 88.2775161,5.75892857 C88.2329764,5.84821429 88.1438972,5.89285714 88.054818,5.9375 C87.9657388,5.98214286 87.8321199,5.98214286 87.6985011,5.98214286 L87.5203426,5.98214286 C87.475803,5.98214286 87.4312634,5.9375 87.3867238,5.9375 L87.3867238,5.80357143 C87.3867238,5.75892857 87.3867238,5.75892857 87.4312634,5.75892857 L87.5203426,5.75892857 L87.6539615,5.75892857 C87.8321199,5.75892857 87.9657388,5.71428571 88.054818,5.625 C88.1438972,5.53571429 88.1884368,5.40178571 88.1884368,5.22321429 L88.1884368,1.60714286 L88.4556745,1.60714286 L88.4556745,1.5625 Z M88.5892934,0.446428571 C88.5892934,0.491071429 88.5892934,0.535714286 88.5447537,0.535714286 C88.5447537,0.580357143 88.5002141,0.580357143 88.5002141,0.625 C88.4556745,0.669642857 88.4556745,0.669642857 88.4111349,0.669642857 C88.3665953,0.669642857 88.3220557,0.714285714 88.3220557,0.714285714 C88.2775161,0.714285714 88.2329764,0.714285714 88.2329764,0.669642857 C88.1884368,0.669642857 88.1884368,0.625 88.1438972,0.625 C88.0993576,0.580357143 88.0993576,0.580357143 88.0993576,0.535714286 C88.0993576,0.491071429 88.054818,0.446428571 88.054818,0.446428571 C88.054818,0.401785714 88.054818,0.357142857 88.0993576,0.357142857 C88.0993576,0.3125 88.1438972,0.267857143 88.1438972,0.267857143 C88.1884368,0.223214286 88.1884368,0.223214286 88.2329764,0.223214286 C88.2775161,0.223214286 88.3220557,0.178571429 88.3220557,0.178571429 C88.3665953,0.178571429 88.4111349,0.178571429 88.4111349,0.223214286 C88.4556745,0.223214286 88.4556745,0.267857143 88.5002141,0.267857143 C88.5447537,0.3125 88.5447537,0.3125 88.5447537,0.357142857 C88.5892934,0.401785714 88.5892934,0.446428571 88.5892934,0.446428571 L88.5892934,0.446428571 Z"></path>
                        <path d="M89.791863,1.5625 L89.791863,3.61607143 C89.791863,3.92857143 89.8809422,4.15178571 90.014561,4.33035714 C90.1481799,4.50892857 90.3708779,4.59821429 90.6381156,4.59821429 C90.8608137,4.59821429 91.0389722,4.55357143 91.2171306,4.41964286 C91.3952891,4.33035714 91.5734475,4.15178571 91.7070664,3.97321429 L91.7070664,1.5625 L92.0188437,1.5625 L92.0188437,4.77678571 L91.8406852,4.77678571 C91.7961456,4.77678571 91.751606,4.73214286 91.751606,4.6875 L91.7070664,4.19642857 C91.5734475,4.375 91.3952891,4.50892857 91.2171306,4.64285714 C91.0389722,4.73214286 90.8162741,4.82142857 90.5490364,4.82142857 C90.3708779,4.82142857 90.2372591,4.77678571 90.1036403,4.73214286 C89.9700214,4.6875 89.8809422,4.59821429 89.791863,4.50892857 C89.7027837,4.41964286 89.6582441,4.28571429 89.5691649,4.15178571 C89.5246253,4.01785714 89.5246253,3.83928571 89.5246253,3.66071429 L89.5246253,1.60714286 L89.791863,1.60714286 L89.791863,1.5625 Z"></path>
                        <path d="M94.869379,2.72321429 L94.869379,4.77678571 L94.5576017,4.77678571 L94.5576017,0.223214286 L95.7156317,0.223214286 C96.2501071,0.223214286 96.6509636,0.3125 96.8736617,0.535714286 C97.1408994,0.758928571 97.2745182,1.02678571 97.2745182,1.42857143 C97.2745182,1.60714286 97.2299786,1.74107143 97.185439,1.91964286 C97.1408994,2.05357143 97.0518201,2.1875 96.9182013,2.27678571 C96.7845824,2.36607143 96.6509636,2.45535714 96.5173448,2.54464286 C96.3391863,2.63392857 96.1610278,2.67857143 95.9828694,2.67857143 C96.027409,2.72321429 96.0719486,2.76785714 96.1164882,2.8125 L97.6753747,4.77678571 L97.408137,4.77678571 L97.3190578,4.77678571 C97.2745182,4.77678571 97.2745182,4.73214286 97.2299786,4.73214286 L95.7601713,2.90178571 C95.7156317,2.85714286 95.6710921,2.8125 95.6265525,2.8125 C95.5820128,2.8125 95.5374732,2.76785714 95.448394,2.76785714 L94.869379,2.76785714 L94.869379,2.72321429 Z M94.869379,2.45535714 L95.6710921,2.45535714 C95.8937901,2.45535714 96.0719486,2.41071429 96.2055675,2.36607143 C96.3837259,2.32142857 96.5173448,2.23214286 96.606424,2.14285714 C96.6955032,2.05357143 96.7845824,1.96428571 96.8736617,1.83035714 C96.9182013,1.69642857 96.9627409,1.5625 96.9627409,1.38392857 C96.9627409,1.07142857 96.8736617,0.803571429 96.6509636,0.669642857 C96.4282655,0.535714286 96.1164882,0.446428571 95.7156317,0.446428571 L94.869379,0.446428571 L94.869379,2.45535714 L94.869379,2.45535714 Z"></path>
                        <path d="M99.5460385,1.51785714 C99.724197,1.51785714 99.9023555,1.5625 100.035974,1.60714286 C100.169593,1.65178571 100.303212,1.74107143 100.436831,1.875 C100.57045,2.00892857 100.659529,2.14285714 100.704069,2.32142857 C100.748608,2.5 100.793148,2.67857143 100.793148,2.90178571 L100.793148,2.99107143 L100.748608,3.03571429 L98.4325482,3.03571429 L98.4325482,3.08035714 C98.4325482,3.30357143 98.4770878,3.52678571 98.5216274,3.70535714 C98.566167,3.88392857 98.6552463,4.01785714 98.7443255,4.15178571 C98.8334047,4.28571429 98.9670236,4.375 99.1006424,4.41964286 C99.2342612,4.46428571 99.4124197,4.50892857 99.5905782,4.50892857 C99.7687366,4.50892857 99.9023555,4.50892857 99.9914347,4.46428571 C100.125054,4.41964286 100.214133,4.375 100.303212,4.33035714 C100.392291,4.28571429 100.436831,4.24107143 100.48137,4.19642857 C100.52591,4.15178571 100.57045,4.15178571 100.57045,4.15178571 C100.614989,4.15178571 100.614989,4.15178571 100.614989,4.19642857 L100.704069,4.28571429 C100.659529,4.33035714 100.57045,4.41964286 100.48137,4.46428571 C100.392291,4.50892857 100.303212,4.55357143 100.214133,4.59821429 C100.125054,4.64285714 99.9914347,4.6875 99.9023555,4.6875 C99.7687366,4.73214286 99.6796574,4.73214286 99.5460385,4.73214286 C99.3233405,4.73214286 99.145182,4.6875 98.9670236,4.59821429 C98.7888651,4.50892857 98.6107066,4.41964286 98.5216274,4.28571429 C98.3880086,4.15178571 98.2989293,3.97321429 98.2098501,3.75 C98.1207709,3.52678571 98.1207709,3.30357143 98.1207709,3.03571429 C98.1207709,2.8125 98.1653105,2.58928571 98.2098501,2.41071429 C98.2543897,2.23214286 98.3880086,2.05357143 98.4770878,1.91964286 C98.6107066,1.78571429 98.7443255,1.65178571 98.9224839,1.60714286 C99.1006424,1.5625 99.3233405,1.51785714 99.5460385,1.51785714 L99.5460385,1.51785714 Z M99.5460385,1.74107143 C99.3678801,1.74107143 99.2342612,1.78571429 99.1006424,1.83035714 C98.9670236,1.875 98.8779443,1.96428571 98.7443255,2.05357143 C98.6552463,2.14285714 98.566167,2.27678571 98.5216274,2.41071429 C98.4770878,2.54464286 98.4325482,2.67857143 98.3880086,2.85714286 L100.48137,2.85714286 C100.48137,2.67857143 100.436831,2.54464286 100.392291,2.41071429 C100.347752,2.27678571 100.258672,2.14285714 100.214133,2.05357143 C100.125054,1.96428571 100.035974,1.875 99.9023555,1.83035714 C99.8132762,1.78571429 99.6796574,1.74107143 99.5460385,1.74107143 L99.5460385,1.74107143 Z"></path>
                        <path d="M102.663812,1.51785714 C102.79743,1.51785714 102.931049,1.51785714 103.064668,1.5625 C103.198287,1.60714286 103.287366,1.65178571 103.376445,1.69642857 L104.178158,1.69642857 L104.178158,1.78571429 C104.178158,1.83035714 104.133619,1.875 104.089079,1.875 L103.599143,1.91964286 C103.643683,2.00892857 103.688223,2.09821429 103.732762,2.1875 C103.777302,2.27678571 103.777302,2.41071429 103.777302,2.5 C103.777302,2.63392857 103.732762,2.8125 103.688223,2.90178571 C103.643683,3.03571429 103.554604,3.125 103.465525,3.21428571 C103.376445,3.30357143 103.242827,3.39285714 103.109208,3.4375 C102.975589,3.48214286 102.79743,3.52678571 102.663812,3.52678571 C102.485653,3.52678571 102.307495,3.48214286 102.173876,3.4375 C102.084797,3.48214286 101.995717,3.57142857 101.951178,3.61607143 C101.906638,3.70535714 101.862099,3.75 101.862099,3.83928571 C101.862099,3.92857143 101.906638,4.01785714 101.951178,4.0625 C101.995717,4.10714286 102.084797,4.15178571 102.218415,4.15178571 C102.307495,4.19642857 102.441113,4.19642857 102.574732,4.19642857 L102.975589,4.19642857 C103.109208,4.19642857 103.242827,4.19642857 103.376445,4.24107143 C103.510064,4.24107143 103.643683,4.28571429 103.732762,4.33035714 C103.821842,4.375 103.910921,4.46428571 104,4.55357143 C104.04454,4.64285714 104.089079,4.73214286 104.089079,4.91071429 C104.089079,5.04464286 104.04454,5.17857143 104,5.3125 C103.95546,5.44642857 103.821842,5.53571429 103.732762,5.625 C103.599143,5.71428571 103.465525,5.80357143 103.287366,5.84821429 C103.109208,5.89285714 102.931049,5.9375 102.708351,5.9375 C102.485653,5.9375 102.307495,5.9375 102.129336,5.89285714 C101.951178,5.84821429 101.817559,5.80357143 101.68394,5.71428571 C101.550321,5.625 101.505782,5.53571429 101.416702,5.44642857 C101.372163,5.35714286 101.327623,5.22321429 101.327623,5.13392857 C101.327623,4.95535714 101.372163,4.82142857 101.505782,4.6875 C101.594861,4.55357143 101.773019,4.46428571 101.951178,4.41964286 C101.862099,4.375 101.773019,4.33035714 101.68394,4.24107143 C101.6394,4.15178571 101.594861,4.0625 101.594861,3.97321429 C101.594861,3.92857143 101.594861,3.88392857 101.6394,3.83928571 C101.6394,3.79464286 101.68394,3.75 101.72848,3.70535714 C101.773019,3.66071429 101.817559,3.61607143 101.862099,3.57142857 C101.906638,3.52678571 101.951178,3.48214286 102.040257,3.4375 C101.906638,3.34821429 101.773019,3.21428571 101.68394,3.08035714 C101.594861,2.94642857 101.550321,2.76785714 101.550321,2.58928571 C101.550321,2.45535714 101.594861,2.27678571 101.6394,2.1875 C101.68394,2.05357143 101.773019,1.96428571 101.862099,1.875 C101.951178,1.78571429 102.084797,1.69642857 102.218415,1.65178571 C102.352034,1.51785714 102.485653,1.51785714 102.663812,1.51785714 L102.663812,1.51785714 Z M103.866381,5 C103.866381,4.91071429 103.821842,4.82142857 103.777302,4.77678571 C103.732762,4.73214286 103.643683,4.6875 103.554604,4.64285714 C103.465525,4.59821429 103.376445,4.59821429 103.242827,4.55357143 C103.109208,4.55357143 103.020128,4.50892857 102.88651,4.50892857 L102.530193,4.50892857 C102.396574,4.50892857 102.307495,4.50892857 102.173876,4.46428571 C102.084797,4.50892857 101.995717,4.55357143 101.951178,4.55357143 C101.862099,4.59821429 101.817559,4.64285714 101.773019,4.6875 C101.72848,4.73214286 101.68394,4.82142857 101.6394,4.86607143 C101.594861,4.91071429 101.594861,5 101.594861,5.08928571 C101.594861,5.17857143 101.6394,5.26785714 101.68394,5.35714286 C101.72848,5.44642857 101.817559,5.49107143 101.906638,5.58035714 C101.995717,5.625 102.129336,5.66964286 102.262955,5.71428571 C102.396574,5.75892857 102.530193,5.75892857 102.708351,5.75892857 C102.88651,5.75892857 103.020128,5.75892857 103.153747,5.71428571 C103.287366,5.66964286 103.420985,5.625 103.510064,5.58035714 C103.599143,5.49107143 103.688223,5.44642857 103.732762,5.35714286 C103.821842,5.17857143 103.866381,5.08928571 103.866381,5 L103.866381,5 Z M102.663812,3.34821429 C102.79743,3.34821429 102.931049,3.34821429 103.020128,3.30357143 C103.109208,3.25892857 103.198287,3.21428571 103.287366,3.125 C103.376445,3.03571429 103.420985,2.94642857 103.465525,2.85714286 C103.510064,2.76785714 103.510064,2.63392857 103.510064,2.54464286 C103.510064,2.41071429 103.510064,2.32142857 103.465525,2.23214286 C103.420985,2.14285714 103.376445,2.05357143 103.287366,1.96428571 C103.198287,1.875 103.109208,1.83035714 103.020128,1.78571429 C102.931049,1.74107143 102.79743,1.74107143 102.663812,1.74107143 C102.530193,1.74107143 102.396574,1.74107143 102.307495,1.78571429 C102.218415,1.83035714 102.129336,1.875 102.040257,1.96428571 C101.951178,2.05357143 101.906638,2.09821429 101.862099,2.23214286 C101.817559,2.32142857 101.817559,2.45535714 101.817559,2.54464286 C101.817559,2.67857143 101.817559,2.76785714 101.862099,2.85714286 C101.906638,2.94642857 101.951178,3.03571429 102.040257,3.125 C102.129336,3.21428571 102.218415,3.25892857 102.307495,3.30357143 C102.396574,3.34821429 102.530193,3.34821429 102.663812,3.34821429 L102.663812,3.34821429 Z"></path>
                        <path d="M105.380728,0.446428571 C105.380728,0.491071429 105.380728,0.535714286 105.336188,0.535714286 C105.336188,0.580357143 105.291649,0.580357143 105.291649,0.625 C105.247109,0.669642857 105.247109,0.669642857 105.20257,0.669642857 C105.15803,0.669642857 105.11349,0.714285714 105.11349,0.714285714 C105.068951,0.714285714 105.024411,0.714285714 105.024411,0.669642857 C104.979872,0.669642857 104.979872,0.625 104.935332,0.625 C104.890792,0.580357143 104.890792,0.580357143 104.890792,0.535714286 C104.890792,0.491071429 104.846253,0.446428571 104.846253,0.446428571 C104.846253,0.401785714 104.846253,0.357142857 104.890792,0.357142857 C104.890792,0.3125 104.935332,0.267857143 104.935332,0.267857143 C104.979872,0.223214286 104.979872,0.223214286 105.024411,0.223214286 C105.068951,0.223214286 105.11349,0.178571429 105.11349,0.178571429 C105.15803,0.178571429 105.20257,0.178571429 105.20257,0.223214286 C105.247109,0.223214286 105.247109,0.267857143 105.291649,0.267857143 C105.336188,0.3125 105.336188,0.3125 105.336188,0.357142857 C105.380728,0.401785714 105.380728,0.446428571 105.380728,0.446428571 L105.380728,0.446428571 Z M105.247109,1.5625 L105.247109,4.77678571 L104.935332,4.77678571 L104.935332,1.5625 L105.247109,1.5625 L105.247109,1.5625 Z"></path>
                        <path d="M107.563169,1.51785714 C107.785867,1.51785714 108.008565,1.5625 108.186724,1.65178571 C108.364882,1.74107143 108.498501,1.83035714 108.63212,1.96428571 C108.765739,2.09821429 108.854818,2.27678571 108.899358,2.5 C108.943897,2.72321429 108.988437,2.94642857 108.988437,3.16964286 C108.988437,3.4375 108.943897,3.66071429 108.899358,3.83928571 C108.854818,4.0625 108.721199,4.19642857 108.63212,4.375 C108.498501,4.50892857 108.364882,4.64285714 108.186724,4.6875 C108.008565,4.77678571 107.785867,4.82142857 107.563169,4.82142857 C107.340471,4.82142857 107.117773,4.77678571 106.939615,4.6875 C106.761456,4.59821429 106.583298,4.50892857 106.494218,4.375 C106.3606,4.24107143 106.27152,4.0625 106.226981,3.83928571 C106.182441,3.61607143 106.137901,3.39285714 106.137901,3.16964286 C106.137901,2.90178571 106.182441,2.67857143 106.226981,2.5 C106.27152,2.27678571 106.405139,2.14285714 106.494218,1.96428571 C106.627837,1.83035714 106.761456,1.69642857 106.939615,1.65178571 C107.162313,1.5625 107.340471,1.51785714 107.563169,1.51785714 L107.563169,1.51785714 Z M107.563169,4.55357143 C107.741328,4.55357143 107.919486,4.50892857 108.053105,4.46428571 C108.186724,4.41964286 108.320343,4.28571429 108.409422,4.19642857 C108.498501,4.0625 108.58758,3.92857143 108.63212,3.75 C108.67666,3.57142857 108.721199,3.39285714 108.721199,3.16964286 C108.721199,2.94642857 108.67666,2.76785714 108.63212,2.58928571 C108.58758,2.41071429 108.498501,2.27678571 108.409422,2.14285714 C108.320343,2.00892857 108.186724,1.91964286 108.053105,1.875 C107.919486,1.78571429 107.741328,1.78571429 107.563169,1.78571429 C107.385011,1.78571429 107.206852,1.83035714 107.073233,1.875 C106.939615,1.91964286 106.805996,2.05357143 106.716916,2.14285714 C106.627837,2.27678571 106.538758,2.41071429 106.494218,2.58928571 C106.449679,2.76785714 106.405139,2.94642857 106.405139,3.16964286 C106.405139,3.39285714 106.449679,3.57142857 106.494218,3.75 C106.538758,3.92857143 106.627837,4.0625 106.716916,4.19642857 C106.805996,4.33035714 106.939615,4.41964286 107.073233,4.46428571 C107.206852,4.55357143 107.385011,4.55357143 107.563169,4.55357143 L107.563169,4.55357143 Z"></path>
                        <path d="M109.83469,4.77678571 L109.83469,1.5625 L110.012848,1.5625 C110.057388,1.5625 110.101927,1.60714286 110.101927,1.65178571 L110.146467,2.14285714 C110.280086,1.96428571 110.458244,1.83035714 110.636403,1.69642857 C110.814561,1.60714286 111.037259,1.51785714 111.304497,1.51785714 C111.482655,1.51785714 111.616274,1.5625 111.749893,1.60714286 C111.883512,1.65178571 111.972591,1.74107143 112.06167,1.83035714 C112.150749,1.91964286 112.195289,2.05357143 112.239829,2.23214286 C112.284368,2.36607143 112.284368,2.54464286 112.284368,2.72321429 L112.284368,4.77678571 L111.972591,4.77678571 L111.972591,2.72321429 C111.972591,2.41071429 111.883512,2.1875 111.749893,2.00892857 C111.616274,1.83035714 111.393576,1.74107143 111.126338,1.74107143 C110.90364,1.74107143 110.725482,1.78571429 110.547323,1.91964286 C110.369165,2.00892857 110.191006,2.1875 110.057388,2.36607143 L110.057388,4.77678571 L109.83469,4.77678571 L109.83469,4.77678571 Z"></path>
                        <path d="M113.531478,1.5625 L113.531478,3.61607143 C113.531478,3.92857143 113.620557,4.15178571 113.754176,4.33035714 C113.887794,4.50892857 114.110493,4.59821429 114.37773,4.59821429 C114.600428,4.59821429 114.778587,4.55357143 114.956745,4.41964286 C115.134904,4.33035714 115.313062,4.15178571 115.446681,3.97321429 L115.446681,1.5625 L115.758458,1.5625 L115.758458,4.77678571 L115.5803,4.77678571 C115.53576,4.77678571 115.491221,4.73214286 115.491221,4.6875 L115.446681,4.19642857 C115.313062,4.375 115.134904,4.50892857 114.956745,4.64285714 C114.778587,4.73214286 114.555889,4.82142857 114.288651,4.82142857 C114.110493,4.82142857 113.932334,4.77678571 113.843255,4.73214286 C113.709636,4.6875 113.620557,4.59821429 113.531478,4.50892857 C113.442398,4.41964286 113.397859,4.28571429 113.308779,4.15178571 C113.26424,4.01785714 113.26424,3.83928571 113.26424,3.66071429 L113.26424,1.60714286 L113.531478,1.60714286 L113.531478,1.5625 Z"></path>
                    </g>
                    <g id="XMLID_279_" fill="#414042">
                        <path d="M9.35331906,1.07142857 C13.9408994,1.47321429 16.7023555,4.55357143 16.7023555,9.46428571 C16.7023555,14.9553571 13.2282655,17.3214286 6.68094218,17.3214286 C5.56745182,17.3214286 4.32034261,17.2321429 4.05310493,17.2321429 L3.42955032,17.1875 L2.98415418,17.0982143 L2.98415418,2.41071429 C2.4496788,2.41071429 1.95974304,2.5 1.69250535,2.76785714 C1.42526767,3.03571429 1.38072805,3.39285714 1.38072805,3.52678571 L0.0890792291,3.52678571 C0.0890792291,2.90178571 0.267237687,2.32142857 0.801713062,1.83035714 C1.20256959,1.42857143 1.78158458,1.11607143 2.49421842,1.11607143 L9.35331906,1.11607143 L9.35331906,1.07142857 Z M4.36488223,15.8928571 C4.94389722,15.8928571 7.52719486,16.0267857 8.32890792,16.0267857 C12.5156317,16.0267857 15.3216274,13.6160714 15.3216274,9.24107143 C15.3216274,5.22321429 12.9164882,2.54464286 9.13062099,2.36607143 L4.36488223,2.36607143 L4.36488223,15.8928571 L4.36488223,15.8928571 Z" id="XMLID_305_"></path>
                        <path d="M30.7768737,11.2946429 C30.7768737,14.8214286 28.4162741,17.2767857 25.0312634,17.2767857 C21.6017131,17.2767857 19.2856531,14.7321429 19.2856531,11.3392857 C19.2856531,7.90178571 21.5571734,5.3125 25.0312634,5.3125 C28.4608137,5.26785714 30.7768737,7.8125 30.7768737,11.2946429 L30.7768737,11.2946429 Z M20.6218415,11.2946429 C20.6218415,14.1071429 22.3143469,16.0714286 25.075803,16.0714286 C27.8817987,16.0714286 29.4852248,13.9732143 29.4852248,11.2053571 C29.4852248,8.34821429 27.7481799,6.47321429 25.075803,6.47321429 C22.1807281,6.47321429 20.6218415,8.61607143 20.6218415,11.2946429 L20.6218415,11.2946429 Z" id="XMLID_302_"></path>
                        <path d="M34.9190578,15.1785714 C34.9190578,15.6696429 35.3199143,15.9821429 35.7207709,15.9821429 C35.943469,15.9821429 36.2107066,15.8482143 36.3888651,15.625 L37.4578158,16.3392857 C37.0569593,16.9196429 36.3888651,17.2767857 35.7207709,17.2767857 C34.6072805,17.2767857 33.6719486,16.3392857 33.6719486,15.1785714 L33.6719486,0.223214286 L34.9635974,0.223214286 L34.9635974,15.1785714 L34.9190578,15.1785714 Z" id="XMLID_300_"></path>
                        <path d="M41.020985,1.65178571 C41.020985,2.1875 40.5755889,2.63392857 40.0411135,2.63392857 C39.5066381,2.63392857 39.061242,2.1875 39.061242,1.65178571 C39.061242,1.11607143 39.5066381,0.669642857 40.0411135,0.669642857 C40.5755889,0.625 41.020985,1.07142857 41.020985,1.65178571 L41.020985,1.65178571 Z M40.7537473,15.1785714 C40.7537473,15.6696429 41.1546039,15.9821429 41.5554604,15.9821429 C41.7781585,15.9821429 42.0453961,15.8928571 42.2235546,15.625 L43.2925054,16.3392857 C42.8916488,16.9196429 42.3126338,17.2767857 41.6,17.2767857 C40.44197,17.2767857 39.5066381,16.3392857 39.5066381,15.1785714 L39.5066381,5.44642857 L40.7982869,5.44642857 L40.7982869,15.1785714 L40.7537473,15.1785714 Z" id="XMLID_297_"></path>
                        <path d="M44.8513919,5.35714286 C45.6085653,5.84821429 45.9648822,6.65178571 46.1430407,7.5 C47.256531,5.89285714 48.5927195,5.3125 50.1961456,5.3125 C52.467666,5.3125 53.7593148,6.38392857 53.9374732,8.70535714 L53.9374732,15.3125 C53.9374732,15.8035714 54.3828694,16.1160714 54.7837259,16.1160714 C55.006424,16.1160714 55.2291221,15.9821429 55.4518201,15.7589286 L56.4762313,16.4732143 C56.0753747,17.0982143 55.4963597,17.4107143 54.7837259,17.4107143 C53.5366167,17.4107143 52.690364,16.4285714 52.690364,15.3125 L52.690364,9.33035714 C52.690364,7.41071429 51.888651,6.5625 50.1070664,6.5625 C48.3700214,6.5625 47.3456103,7.5 46.2766595,8.88392857 L46.2766595,17.0982143 L44.9850107,17.0982143 L44.9850107,8.92857143 C44.9850107,7.67857143 44.6732334,6.78571429 44.0496788,6.16071429 L44.8513919,5.35714286 L44.8513919,5.35714286 Z" id="XMLID_295_"></path>
                        <path d="M69.9271949,16.3392857 C69.5263383,17.0089286 68.8582441,17.2767857 68.2346895,17.2767857 C67.1657388,17.2767857 66.2749465,16.4732143 66.1413276,15.4464286 C65.3841542,16.6964286 64.137045,17.2767857 62.6672377,17.2767857 C59.3713062,17.2767857 57.7233405,14.5089286 57.7233405,11.3392857 C57.7233405,7.76785714 59.8167024,5.26785714 63.3798715,5.26785714 C64.0925054,5.26785714 65.3396146,5.35714286 66.1413276,5.49107143 L67.4329764,5.49107143 L67.4329764,15.1785714 C67.4329764,15.6696429 67.833833,15.9821429 68.2346895,15.9821429 C68.5019272,15.9821429 68.7246253,15.8482143 68.9027837,15.625 L69.9271949,16.3392857 L69.9271949,16.3392857 Z M66.1413276,6.65178571 C65.4286938,6.65178571 64.0479657,6.47321429 63.2462527,6.47321429 C60.4847966,6.47321429 59.0595289,8.61607143 59.0595289,11.2946429 C59.0595289,13.7053571 60.2175589,16.0714286 62.7117773,16.0714286 C64.1815846,16.0714286 65.2950749,15.2678571 65.8295503,14.1517857 C66.0522484,13.75 66.1413276,13.2589286 66.1413276,12.6785714 L66.1413276,6.65178571 L66.1413276,6.65178571 Z" id="XMLID_292_"></path>
                        <path d="M89.791863,15.1339286 C88.4556745,16.875 86.5404711,17.7678571 84.4471092,17.7678571 C79.9931478,17.7678571 76.5635974,13.8392857 76.5635974,9.41964286 C76.5635974,4.77678571 80.3494647,0.758928571 84.6698073,0.758928571 C86.6295503,0.758928571 89.9700214,1.5625 89.9700214,4.10714286 C89.9700214,5.40178571 89.0792291,6.29464286 87.9211991,6.29464286 C87.475803,6.29464286 87.0304069,6.16071429 86.6740899,5.89285714 L87.475803,4.91071429 C87.6539615,5.04464286 87.8321199,5.08928571 87.9657388,5.08928571 C88.4111349,5.08928571 88.7229122,4.6875 88.7229122,4.15178571 C88.7229122,2.58928571 86.0950749,2.09821429 84.6698073,2.09821429 C80.88394,2.09821429 77.8107066,5.58035714 77.8107066,9.50892857 C77.8107066,13.3482143 80.7948608,16.5625 84.4471092,16.5625 C87.3421842,16.5625 89.435546,14.5089286 89.791863,11.9196429 L89.791863,10.0892857 L91.1280514,10.0892857 L91.1280514,18.7053571 C91.1280514,20.1339286 89.9700214,20.8482143 88.9456103,20.8482143 C88.2329764,20.8482143 87.5648822,20.4910714 87.2085653,19.9107143 L88.3220557,19.1517857 C88.4556745,19.375 88.6783726,19.5089286 88.9901499,19.5089286 C89.5246253,19.5089286 89.791863,19.1071429 89.8364026,18.7053571 L89.8364026,15.1339286 L89.791863,15.1339286 Z" id="XMLID_290_"></path>
                        <path d="M94.1567452,5.26785714 C95.0475375,5.9375 96.027409,6.74107143 96.027409,8.03571429 L96.027409,13.2589286 C96.027409,15.1785714 96.8736617,16.0267857 98.6107066,16.0267857 C100.303212,16.0267857 101.283084,15.2232143 102.396574,13.7053571 L102.396574,5.44642857 L103.643683,5.44642857 L103.643683,15.2232143 C103.643683,15.7142857 104.089079,16.0267857 104.489936,16.0267857 C104.712634,16.0267857 104.979872,15.8928571 105.15803,15.6696429 L106.226981,16.3839286 C105.781585,17.0089286 105.247109,17.2767857 104.534475,17.2767857 C103.331906,17.2767857 102.441113,16.3839286 102.396574,15.2232143 C101.283084,16.6517857 100.125054,17.2321429 98.4770878,17.2321429 C96.2055675,17.2321429 94.9139186,16.1607143 94.7357602,13.8392857 L94.7357602,8.03571429 C94.7357602,7.23214286 93.8895075,6.65178571 93.4441113,6.33928571 L94.1567452,5.26785714 L94.1567452,5.26785714 Z" id="XMLID_288_"></path>
                        <path d="M109.74561,7.00892857 C110.547323,5.75892857 111.928051,5.26785714 113.26424,5.26785714 C116.203854,5.26785714 118.163597,7.76785714 118.163597,11.25 C118.163597,14.4642857 116.560171,17.2767857 112.328908,17.2767857 C111.794433,17.2767857 110.814561,17.2321429 110.101927,17.1428571 C109.74561,17.0982143 108.943897,16.9642857 108.498501,16.8303571 L108.498501,0.223214286 L109.79015,0.223214286 L109.79015,7.00892857 L109.74561,7.00892857 Z M110.94818,15.9821429 C111.393576,16.0714286 111.928051,16.0714286 112.284368,16.0714286 C115.758458,16.0714286 116.827409,13.7946429 116.827409,11.2946429 C116.827409,8.16964286 115.179443,6.47321429 113.175161,6.47321429 C112.373448,6.47321429 111.616274,6.74107143 110.992719,7.23214286 C110.191006,7.85714286 109.79015,8.57142857 109.74561,9.46428571 L109.74561,15.8928571 L110.94818,15.9821429 L110.94818,15.9821429 Z" id="XMLID_285_"></path>
                        <path d="M121.236831,5.35714286 C121.949465,5.89285714 122.305782,6.51785714 122.52848,7.41071429 C122.929336,6.69642857 123.419272,6.11607143 123.953747,5.80357143 C124.532762,5.44642857 125.245396,5.3125 125.95803,5.3125 C126.269807,5.3125 126.447966,5.3125 127.294218,5.49107143 L127.294218,6.69642857 C126.670664,6.5625 126.314347,6.51785714 126.00257,6.51785714 C125.111777,6.51785714 124.532762,6.69642857 124.042827,7.09821429 C123.64197,7.41071429 123.107495,8.03571429 122.706638,8.75 L122.706638,17.0089286 L121.414989,17.0089286 L121.414989,8.83928571 C121.414989,7.58928571 121.103212,6.69642857 120.479657,6.07142857 L121.236831,5.35714286 L121.236831,5.35714286 Z" id="XMLID_283_"></path>
                        <path d="M140.299786,16.3392857 C139.898929,17.0089286 139.230835,17.2767857 138.607281,17.2767857 C137.53833,17.2767857 136.647537,16.4732143 136.513919,15.4464286 C135.756745,16.6964286 134.509636,17.2767857 133.039829,17.2767857 C129.743897,17.2767857 128.095931,14.5089286 128.095931,11.3392857 C128.095931,7.76785714 130.189293,5.26785714 133.752463,5.26785714 C134.465096,5.26785714 135.712206,5.35714286 136.513919,5.49107143 L137.805567,5.49107143 L137.805567,15.1785714 C137.805567,15.6696429 138.206424,15.9821429 138.607281,15.9821429 C138.874518,15.9821429 139.097216,15.8482143 139.275375,15.625 L140.299786,16.3392857 L140.299786,16.3392857 Z M136.469379,6.65178571 C135.756745,6.65178571 134.376017,6.47321429 133.574304,6.47321429 C130.812848,6.47321429 129.38758,8.61607143 129.38758,11.2946429 C129.38758,13.7053571 130.54561,16.0714286 133.039829,16.0714286 C134.509636,16.0714286 135.623126,15.2678571 136.157602,14.1517857 C136.3803,13.75 136.469379,13.2589286 136.469379,12.6785714 L136.469379,6.65178571 L136.469379,6.65178571 Z" id="XMLID_280_"></path>
                    </g>
                </g>
            </g>
        </g>
    </g>
</svg>