<?xml version="1.0" encoding="UTF-8" standalone="no"?>
<svg width="155px" height="24px" viewBox="0 0 155 24" version="1.1" xmlns="http://www.w3.org/2000/svg" xmlns:xlink="http://www.w3.org/1999/xlink" xmlns:sketch="http://www.bohemiancoding.com/sketch/ns">
    <!-- Generator: Sketch 3.3.2 (12043) - http://www.bohemiancoding.com/sketch -->
    <title>Slice 1</title>
    <desc>Created with Sketch.</desc>
    <defs></defs>
    <g id="Page-1" stroke="none" stroke-width="1" fill="none" fill-rule="evenodd" sketch:type="MSPage">
        <g id="Group" sketch:type="MSLayerGroup">
            <g sketch:type="MSShapeGroup">
                <path d="M0.223021583,23.9625 L0.223021583,0.15 L12.6378897,0.15 C24.9040767,0.15 24.8669065,19.8 12.6378897,19.8 L6.54196643,19.8 L6.54196643,23.9625 L0.223021583,23.9625 L0.223021583,23.9625 Z M12.117506,13.6125 C16.3549161,13.6125 16.3549161,6.4875 12.117506,6.4875 L6.54196643,6.4875 L6.54196643,13.6125 L12.117506,13.6125 L12.117506,13.6125 Z" id="Shape" fill="#0F1317"></path>
                <path d="M79.0611511,0.15 L79.0611511,23.9625 L66.646283,23.9625 C54.3800959,23.9625 54.4172662,4.3125 66.646283,4.3125 L72.7422062,4.3125 L72.7422062,0.15 L79.0611511,0.15 L79.0611511,0.15 Z M67.1666667,10.5 C62.9292566,10.5 62.9292566,17.625 67.1666667,17.625 L72.7422062,17.625 L72.7422062,10.5 L67.1666667,10.5 L67.1666667,10.5 Z" id="Shape" fill="#0F1317"></path>
                <path d="M51.0719424,0.15 L46.6115108,11.5875 L42.1882494,0.15 L38.3597122,0.15 L33.9364508,11.5875 L29.4388489,0.15 L22.3764988,0.15 L31.8549161,23.9625 L36.0551559,23.9625 L40.2553957,13.575 L44.4928058,23.9625 L48.6558753,23.9625 L58.1342926,0.15 L51.0719424,0.15 Z" id="XMLID_10_" fill="#F05453"></path>
            </g>
            <g transform="translate(84.376499, 7.125000)" fill="#0F1317" sketch:type="MSShapeGroup">
                <path d="M10.6678657,10.7625 C10.6678657,12.675 10.1846523,14.175 9.25539568,15.225 C8.28896882,16.3125 6.98800959,16.8375 5.31534772,16.8375 C4.27458034,16.8375 3.34532374,16.575 2.5647482,16.0875 C1.7470024,15.6 1.15227818,14.8875 0.706235012,13.9875 C0.260191847,13.0875 0.0371702638,12 0.0371702638,10.7625 C0.0371702638,8.85 0.520383693,7.3875 1.44964029,6.3 C2.37889688,5.25 3.71702638,4.6875 5.38968825,4.6875 C7.02517986,4.6875 8.28896882,5.25 9.25539568,6.3375 C10.1846523,7.4625 10.6678657,8.925 10.6678657,10.7625 L10.6678657,10.7625 Z M1.82134293,10.7625 C1.82134293,12.2625 2.11870504,13.3875 2.71342926,14.175 C3.30815348,14.9625 4.16306954,15.3375 5.31534772,15.3375 C6.4676259,15.3375 7.32254197,14.9625 7.91726619,14.175 C8.51199041,13.3875 8.80935252,12.2625 8.80935252,10.7625 C8.80935252,9.2625 8.51199041,8.1375 7.91726619,7.3875 C7.32254197,6.6 6.43045564,6.225 5.27817746,6.225 C4.12589928,6.225 3.27098321,6.6 2.67625899,7.35 C2.11870504,8.1375 1.82134293,9.2625 1.82134293,10.7625 L1.82134293,10.7625 Z" id="Shape"></path>
                <path d="M20.5923261,16.65 L20.5923261,9.075 C20.5923261,8.1375 20.3693046,7.425 19.9604317,6.9375 C19.5143885,6.45 18.8453237,6.225 17.9532374,6.225 C16.7266187,6.225 15.8345324,6.5625 15.2769784,7.2 C14.7194245,7.875 14.4220624,8.9625 14.4220624,10.4625 L14.4220624,16.6125 L12.6378897,16.6125 L12.6378897,4.9125 L14.0503597,4.9125 L14.3477218,6.525 L14.4220624,6.525 C14.793765,5.9625 15.2769784,5.5125 15.9460432,5.175 C16.6151079,4.875 17.3213429,4.6875 18.1019185,4.6875 C19.5143885,4.6875 20.5551559,5.025 21.2613909,5.7 C21.9676259,6.375 22.3021583,7.4625 22.3021583,8.9625 L22.3021583,16.575 L20.5923261,16.575 L20.5923261,16.65 Z" id="Shape"></path>
                <path d="M26.6139089,16.65 L24.8669065,16.65 L24.8669065,0.0375 L26.6139089,0.0375 L26.6139089,16.65 L26.6139089,16.65 Z" id="Shape"></path>
                <path d="M29.1043165,1.7625 C29.1043165,1.35 29.2158273,1.05 29.4016787,0.8625 C29.58753,0.675 29.8477218,0.5625 30.1450839,0.5625 C30.442446,0.5625 30.6654676,0.675 30.8884892,0.8625 C31.0743405,1.05 31.1858513,1.35 31.1858513,1.7625 C31.1858513,2.175 31.0743405,2.475 30.8884892,2.6625 C30.6654676,2.85 30.442446,2.9625 30.1450839,2.9625 C29.8477218,2.9625 29.58753,2.85 29.4016787,2.6625 C29.2158273,2.475 29.1043165,2.175 29.1043165,1.7625 L29.1043165,1.7625 Z M31,16.65 L29.2529976,16.65 L29.2529976,4.95 L31,4.95 L31,16.65 L31,16.65 Z" id="Shape"></path>
                <path d="M41.5935252,16.65 L41.5935252,9.075 C41.5935252,8.1375 41.3705036,7.425 40.9616307,6.9375 C40.5155875,6.45 39.8465228,6.225 38.9544365,6.225 C37.7278177,6.225 36.8357314,6.5625 36.2781775,7.2 C35.7206235,7.875 35.4232614,8.9625 35.4232614,10.4625 L35.4232614,16.6125 L33.676259,16.6125 L33.676259,4.9125 L35.088729,4.9125 L35.3860911,6.525 L35.4604317,6.525 C35.8321343,5.9625 36.3153477,5.5125 36.9844125,5.175 C37.616307,4.875 38.3597122,4.6875 39.1402878,4.6875 C40.5527578,4.6875 41.5935252,5.025 42.2997602,5.7 C43.0059952,6.375 43.3405276,7.4625 43.3405276,8.9625 L43.3405276,16.575 L41.5935252,16.575 L41.5935252,16.65 Z" id="Shape"></path>
                <path d="M55.0491607,11.1 L55.0491607,9.975 C55.0491607,8.4 54.6402878,7.125 53.7853717,6.15 C52.9304556,5.175 51.7781775,4.6875 50.3285372,4.6875 C48.7673861,4.6875 47.5407674,5.25 46.6115108,6.3375 C45.6822542,7.4625 45.236211,8.9625 45.236211,10.8375 C45.236211,12.7125 45.7194245,14.175 46.7230216,15.225 C47.7266187,16.275 49.0647482,16.8 50.7745803,16.8 C51.5551559,16.8 52.2242206,16.725 52.7817746,16.6125 C53.3393285,16.5 53.9340528,16.3125 54.528777,16.0125 L54.528777,14.4375 C53.3021583,14.9625 52.0755396,15.225 50.8117506,15.225 C49.6223022,15.225 48.7673861,14.8125 48.0611511,14.175 C46.5743405,12.825 47.057554,9.6 47.057554,9.6 C47.1690647,8.5125 47.4664269,7.6875 48.0239808,7.05 C48.5815348,6.45 49.32494,6.15 50.2541966,6.15 C51.1834532,6.15 51.8896882,6.45 52.3729017,7.05 C52.8561151,7.65 53.116307,8.5125 53.116307,9.6 L48.9160671,9.6 L48.9160671,11.025 L55.0491607,11.025 L55.0491607,11.1 Z" id="XMLID_2_"></path>
            </g>
            <ellipse id="XMLID_1_" fill="#F05453" sketch:type="MSShapeGroup" cx="149.721823" cy="18.9375" rx="5.01798561" ry="5.0625"></ellipse>
        </g>
    </g>
</svg>